<svg version="1.1" id="Layer_1" xmlns="http://www.w3.org/2000/svg" xmlns:xlink="http://www.w3.org/1999/xlink" x="0px" y="0px"
	 width="100%" viewBox="0 0 500 500" enable-background="new 0 0 500 500" xml:space="preserve">
<path fill="#191C25" opacity="1.000000" stroke="none" 
	d="
M334.000000,501.000000 
	C222.666687,501.000000 111.833389,501.000000 1.000059,501.000000 
	C1.000040,334.333405 1.000040,167.666794 1.000020,1.000149 
	C167.666565,1.000099 334.333130,1.000099 500.999756,1.000050 
	C500.999847,167.666519 500.999847,334.333038 500.999939,500.999786 
	C445.500000,501.000000 390.000000,501.000000 334.000000,501.000000 
M284.901611,268.991486 
	C293.174438,268.568054 299.973572,264.538361 303.501282,257.606262 
	C306.776337,251.170670 310.868073,246.376709 317.632568,242.742691 
	C319.481934,241.164124 321.526306,239.763000 323.149750,237.978867 
	C335.979828,223.878830 339.365723,207.692810 333.766388,189.502151 
	C333.124207,187.415985 332.426788,184.806915 333.110382,182.935349 
	C340.675812,162.223465 332.010651,136.674179 309.632477,125.057701 
	C308.733490,123.575760 307.634064,122.178162 306.969055,120.597763 
	C303.482910,112.313118 298.231445,105.983559 288.343842,103.377625 
	C276.703430,101.733185 266.506134,103.768532 259.209503,115.054031 
	C257.908539,119.975365 255.520813,124.887596 255.479477,129.819489 
	C255.164215,167.438782 255.144760,205.063446 255.507507,242.681885 
	C255.553970,247.501831 258.330383,252.295441 260.018677,257.756561 
	C265.908478,266.074402 273.751801,270.168274 284.901611,268.991486 
M184.259125,242.770737 
	C185.909973,243.867188 187.612335,244.894592 189.198410,246.077866 
	C191.110107,247.504044 193.753021,248.680786 194.647064,250.624359 
	C201.601776,265.743408 209.218170,270.297363 226.669022,268.742157 
	C239.352325,264.653015 246.770721,255.320786 246.833389,242.111618 
	C247.010468,204.795090 246.998734,167.476608 246.808151,130.160202 
	C246.765472,121.802147 244.501816,114.000244 236.632889,108.308197 
	C223.135681,97.428810 199.812164,102.800186 194.684845,121.665863 
	C194.297821,123.089844 192.832489,124.220764 191.190369,125.747742 
	C170.683517,136.585373 161.340530,160.166428 168.714844,182.217285 
	C169.245926,183.805359 169.649704,185.966431 168.999969,187.331451 
	C165.245346,195.219513 165.263184,203.640289 166.161591,211.834167 
	C167.535538,224.365356 173.254959,234.858856 184.259125,242.770737 
M306.245514,327.563354 
	C306.245514,340.489014 306.245514,353.414673 306.245514,366.744171 
	C308.482697,366.639923 310.046722,366.567078 312.029663,366.474701 
	C312.029663,359.690979 312.029663,353.287628 312.029663,346.085205 
	C318.841431,352.213257 325.703888,353.471588 332.889832,348.808685 
	C338.772522,344.991455 341.799316,336.681946 338.954742,329.229523 
	C333.444275,314.792694 323.567444,314.881561 312.108856,322.390167 
	C311.973877,321.032043 311.833038,319.614685 311.668121,317.954865 
	C309.706085,318.080719 308.133270,318.181580 306.245514,318.302643 
	C306.245514,321.302521 306.245514,323.944305 306.245514,327.563354 
M265.671112,348.498260 
	C265.671112,354.450928 265.671112,360.403625 265.671112,366.735687 
	C267.785767,366.620300 269.330994,366.536011 271.298645,366.428650 
	C271.298645,359.449890 271.298645,352.923828 271.298645,346.040161 
	C279.508850,352.893646 288.036011,353.214294 294.065216,347.257904 
	C300.203369,341.193909 301.020172,329.486481 295.100891,323.121735 
	C292.793701,320.640900 289.176727,318.859741 285.834930,317.977051 
	C280.363403,316.531891 275.486389,318.721436 271.238983,323.427460 
	C271.096802,321.144135 271.009552,319.743225 270.920044,318.305725 
	C269.090271,318.305725 267.517426,318.305725 265.671143,318.305725 
	C265.671143,328.216888 265.671143,337.857788 265.671112,348.498260 
M223.087738,336.229523 
	C223.645493,348.640656 237.747498,357.724426 250.803467,346.174194 
	C250.921600,347.914429 251.022888,349.406342 251.139526,351.124451 
	C253.167542,350.958984 254.724182,350.831970 256.271362,350.705719 
	C256.271362,339.667664 256.271362,329.039398 256.271362,318.225098 
	C254.458847,318.225098 252.850266,318.225098 251.086563,318.225098 
	C250.985596,319.793732 250.896698,321.174957 250.767166,323.187347 
	C244.983124,317.172852 238.525787,316.010345 231.735016,319.214294 
	C225.117676,322.336395 222.948730,328.361237 223.087738,336.229523 
M187.140015,326.751556 
	C187.755142,334.762421 188.370270,342.773285 189.007034,351.065704 
	C190.606537,350.971130 192.171555,350.878571 193.912521,350.775604 
	C193.912521,343.749908 194.172012,337.101440 193.850967,330.481110 
	C193.383865,320.849640 185.764877,315.470490 176.515991,318.079559 
	C174.401047,318.676178 172.501480,320.036255 169.914764,321.341675 
	C169.914764,316.293182 169.914764,311.594971 169.914764,306.871063 
	C167.782394,306.871063 166.203415,306.871063 164.569504,306.871063 
	C164.569504,321.722351 164.569504,336.255737 164.569504,350.749023 
	C166.478394,350.749023 168.060242,350.749023 169.964386,350.749023 
	C169.964386,344.506622 169.957123,338.542114 169.966843,332.577637 
	C169.973831,328.284119 171.211670,324.616730 175.614380,323.003784 
	C179.948608,321.415924 183.787842,322.235291 187.140015,326.751556 
M203.003464,318.402313 
	C203.003464,329.172119 203.003464,339.941925 203.003464,350.749908 
	C204.663651,350.749908 206.235916,350.749908 208.070007,350.749908 
	C208.070007,345.680603 208.064880,340.874664 208.071091,336.068726 
	C208.083817,326.234375 209.137009,324.874817 218.869003,322.388763 
	C218.766068,320.887299 218.659760,319.336334 218.477020,316.670624 
	C214.545502,318.486816 211.380325,319.949005 208.118439,321.455872 
	C209.023071,317.612274 206.380783,317.880951 203.003464,318.402313 
z"/>
<path fill="#026DEA" opacity="1.000000" stroke="none" 
	d="
M236.997284,108.849998 
	C244.501816,114.000244 246.765472,121.802147 246.808151,130.160202 
	C246.998734,167.476608 247.010468,204.795090 246.833389,242.111618 
	C246.770721,255.320786 239.352325,264.653015 226.319214,268.322754 
	C225.965271,266.225708 225.961151,264.548035 226.190674,262.621033 
	C236.878983,258.274445 240.428619,250.135513 240.391403,239.474823 
	C240.267746,204.047668 240.293167,168.619675 240.389984,133.192337 
	C240.408340,126.470375 239.105713,120.348877 234.965546,114.886627 
	C235.836243,112.716927 236.416763,110.783463 236.997284,108.849998 
z"/>
<path fill="#01B7F6" opacity="1.000000" stroke="none" 
	d="
M183.930573,242.197769 
	C173.254959,234.858856 167.535538,224.365356 166.161591,211.834167 
	C165.263184,203.640289 165.245346,195.219513 168.999969,187.331451 
	C169.649704,185.966431 169.245926,183.805359 168.714844,182.217285 
	C161.340530,160.166428 170.683517,136.585373 191.564240,126.039436 
	C192.286331,128.223419 192.634567,130.115707 192.646484,132.104462 
	C185.161346,137.267746 178.893646,142.914566 175.581696,151.502060 
	C168.245468,170.524094 174.103439,189.971512 191.046127,201.795105 
	C190.277390,203.806671 189.535706,205.453995 188.448990,207.077637 
	C183.212265,202.816803 178.320587,198.579651 172.700272,193.711349 
	C172.342468,198.924896 171.551010,203.803299 171.768494,208.636292 
	C172.261703,219.596558 177.777344,228.346481 184.996185,236.575317 
	C184.643158,238.709015 184.286865,240.453384 183.930573,242.197769 
z"/>
<path fill="#C16CE1" opacity="1.000000" stroke="none" 
	d="
M310.135620,125.502014 
	C332.010651,136.674179 340.675812,162.223465 333.110382,182.935349 
	C332.426788,184.806915 333.124207,187.415985 333.766388,189.502151 
	C339.365723,207.692810 335.979828,223.878830 323.149750,237.978867 
	C321.526306,239.763000 319.481934,241.164124 317.297028,242.478516 
	C316.620758,240.440018 316.280060,238.665726 316.078613,236.587952 
	C328.682709,225.596252 333.813812,207.709534 328.423737,194.766266 
	C323.365875,198.870789 318.218384,203.048035 313.051270,206.831909 
	C312.704590,204.670853 312.377594,202.903183 312.278137,200.889801 
	C315.849304,197.195679 319.740265,194.127060 322.441956,190.233261 
	C334.255463,173.207047 331.823975,146.409363 310.043274,132.297516 
	C310.070129,129.735062 310.102875,127.618538 310.135620,125.502014 
z"/>
<path fill="#D52D72" opacity="1.000000" stroke="none" 
	d="
M259.842163,257.101257 
	C258.330383,252.295441 255.553970,247.501831 255.507507,242.681885 
	C255.144760,205.063446 255.164215,167.438782 255.479477,129.819489 
	C255.520813,124.887596 257.908539,119.975365 259.656372,115.191391 
	C261.105804,117.222824 262.108307,119.116905 263.076599,121.437805 
	C262.592285,125.307732 261.760162,128.749832 261.750977,132.194122 
	C261.655273,167.985535 261.637543,203.777481 261.766724,239.568665 
	C261.781494,243.662857 262.824036,247.753311 263.096680,252.066238 
	C261.816254,253.891739 260.829193,255.496490 259.842163,257.101257 
z"/>
<path fill="#019EF9" opacity="1.000000" stroke="none" 
	d="
M192.982788,132.007996 
	C192.634567,130.115707 192.286331,128.223419 191.903259,125.909515 
	C192.832489,124.220764 194.297821,123.089844 194.684845,121.665863 
	C199.812164,102.800186 223.135681,97.428810 236.815094,108.579102 
	C236.416763,110.783463 235.836243,112.716927 234.668716,114.736526 
	C230.086807,112.980736 226.255539,110.239143 222.064270,109.476730 
	C212.119049,107.667664 202.026047,115.444611 200.135605,125.504517 
	C198.172974,135.948563 203.793732,144.666214 214.106598,147.428680 
	C216.155197,147.977417 218.045837,149.115875 220.018509,150.452454 
	C219.986649,152.820740 219.945572,154.718918 219.567139,156.432556 
	C209.531525,150.904709 202.418945,151.546234 193.655716,158.116241 
	C192.462860,159.010544 190.236481,158.526321 188.488647,158.680374 
	C188.898148,156.929077 188.726303,154.490204 189.828568,153.558197 
	C192.870346,150.986252 196.444870,149.044373 199.244766,147.220657 
	C197.084351,141.972198 195.033569,136.990097 192.982788,132.007996 
z"/>
<path fill="#EFF0F0" opacity="1.000000" stroke="none" 
	d="
M306.245514,327.074738 
	C306.245514,323.944305 306.245514,321.302521 306.245514,318.302643 
	C308.133270,318.181580 309.706085,318.080719 311.668121,317.954865 
	C311.833038,319.614685 311.973877,321.032043 312.108856,322.390167 
	C323.567444,314.881561 333.444275,314.792694 338.954742,329.229523 
	C341.799316,336.681946 338.772522,344.991455 332.889832,348.808685 
	C325.703888,353.471588 318.841431,352.213257 312.029663,346.085205 
	C312.029663,353.287628 312.029663,359.690979 312.029663,366.474701 
	C310.046722,366.567078 308.482697,366.639923 306.245514,366.744171 
	C306.245514,353.414673 306.245514,340.489014 306.245514,327.074738 
M330.356812,343.912109 
	C331.392181,342.242828 332.830719,340.696442 333.384155,338.880280 
	C334.803680,334.221924 334.822174,329.135529 330.909363,325.999878 
	C328.284241,323.896179 324.092285,322.789642 320.651306,322.893341 
	C315.852722,323.038025 313.130249,326.900299 312.233765,331.430939 
	C311.253326,336.385651 312.061798,341.159607 316.406036,344.414398 
	C320.743805,347.664368 325.319244,347.451477 330.356812,343.912109 
z"/>
<path fill="#F7F7F7" opacity="1.000000" stroke="none" 
	d="
M265.671143,347.998474 
	C265.671143,337.857788 265.671143,328.216888 265.671143,318.305725 
	C267.517426,318.305725 269.090271,318.305725 270.920044,318.305725 
	C271.009552,319.743225 271.096802,321.144135 271.238983,323.427460 
	C275.486389,318.721436 280.363403,316.531891 285.834930,317.977051 
	C289.176727,318.859741 292.793701,320.640900 295.100891,323.121735 
	C301.020172,329.486481 300.203369,341.193909 294.065216,347.257904 
	C288.036011,353.214294 279.508850,352.893646 271.298645,346.040161 
	C271.298645,352.923828 271.298645,359.449890 271.298645,366.428650 
	C269.330994,366.536011 267.785767,366.620300 265.671112,366.735687 
	C265.671112,360.403625 265.671112,354.450928 265.671143,347.998474 
M272.525421,328.327911 
	C269.654144,336.571198 271.975037,343.589752 278.362427,345.979492 
	C283.685608,347.971069 289.337158,345.833252 291.939178,340.843781 
	C294.988464,334.996552 293.179047,327.071289 288.086090,323.967163 
	C282.860809,320.782440 277.382690,322.119720 272.525421,328.327911 
z"/>
<path fill="#F7F7F7" opacity="1.000000" stroke="none" 
	d="
M223.070908,335.795471 
	C222.948730,328.361237 225.117676,322.336395 231.735016,319.214294 
	C238.525787,316.010345 244.983124,317.172852 250.767166,323.187347 
	C250.896698,321.174957 250.985596,319.793732 251.086563,318.225098 
	C252.850266,318.225098 254.458847,318.225098 256.271362,318.225098 
	C256.271362,329.039398 256.271362,339.667664 256.271362,350.705719 
	C254.724182,350.831970 253.167542,350.958984 251.139526,351.124451 
	C251.022888,349.406342 250.921600,347.914429 250.803467,346.174194 
	C237.747498,357.724426 223.645493,348.640656 223.070908,335.795471 
M236.557678,346.161224 
	C242.536789,347.334930 246.794189,345.644745 249.304245,341.100800 
	C251.893784,336.412994 251.373291,330.013184 248.086548,326.128815 
	C245.025879,322.511627 239.872147,321.238007 235.416534,323.209961 
	C231.242538,325.057312 229.152863,328.442169 228.862549,332.971344 
	C228.492599,338.742676 230.054703,343.477234 236.557678,346.161224 
z"/>
<path fill="#EFF0F0" opacity="1.000000" stroke="none" 
	d="
M186.951401,326.372833 
	C183.787842,322.235291 179.948608,321.415924 175.614380,323.003784 
	C171.211670,324.616730 169.973831,328.284119 169.966843,332.577637 
	C169.957123,338.542114 169.964386,344.506622 169.964386,350.749023 
	C168.060242,350.749023 166.478394,350.749023 164.569504,350.749023 
	C164.569504,336.255737 164.569504,321.722351 164.569504,306.871063 
	C166.203415,306.871063 167.782394,306.871063 169.914764,306.871063 
	C169.914764,311.594971 169.914764,316.293182 169.914764,321.341675 
	C172.501480,320.036255 174.401047,318.676178 176.515991,318.079559 
	C185.764877,315.470490 193.383865,320.849640 193.850967,330.481110 
	C194.172012,337.101440 193.912521,343.749908 193.912521,350.775604 
	C192.171555,350.878571 190.606537,350.971130 189.007034,351.065704 
	C188.370270,342.773285 187.755142,334.762421 186.951401,326.372833 
z"/>
<path fill="#CE59C1" opacity="1.000000" stroke="none" 
	d="
M309.884033,125.279861 
	C310.102875,127.618538 310.070129,129.735062 309.717224,132.244965 
	C306.978607,137.584930 304.560150,142.531494 302.290894,147.172913 
	C305.527130,149.239182 308.976135,150.999847 311.811646,153.465912 
	C312.968414,154.471970 312.795258,157.007202 313.227173,158.846725 
	C311.484894,158.647537 309.600769,158.805054 308.027893,158.179749 
	C303.926880,156.549301 299.962219,154.575867 295.946289,152.311493 
	C295.959442,149.310577 295.969482,146.737396 296.148712,143.858246 
	C305.223389,134.675186 304.889404,116.946732 288.086914,109.527130 
	C288.438507,107.378609 288.736938,105.608795 289.035370,103.838982 
	C298.231445,105.983559 303.482910,112.313118 306.969055,120.597763 
	C307.634064,122.178162 308.733490,123.575760 309.884033,125.279861 
z"/>
<path fill="#019EF9" opacity="1.000000" stroke="none" 
	d="
M184.094849,242.484253 
	C184.286865,240.453384 184.643158,238.709015 185.328552,236.630020 
	C188.108124,237.983704 190.558594,239.672012 192.910461,241.292358 
	C194.218933,237.431259 194.845825,234.259766 196.375916,231.609772 
	C197.171310,230.232208 199.561920,229.775681 201.231934,228.903107 
	C201.442307,230.639893 202.324539,232.647278 201.751968,234.068695 
	C198.491089,242.163971 198.860931,249.890228 204.742813,256.385101 
	C210.309067,262.531464 217.320526,265.844086 225.957016,262.870392 
	C225.961151,264.548035 225.965271,266.225708 225.953979,268.321320 
	C209.218170,270.297363 201.601776,265.743408 194.647064,250.624359 
	C193.753021,248.680786 191.110107,247.504044 189.198410,246.077866 
	C187.612335,244.894592 185.909973,243.867188 184.094849,242.484253 
z"/>
<path fill="#CE59C1" opacity="1.000000" stroke="none" 
	d="
M315.939331,236.891418 
	C316.280060,238.665726 316.620758,240.440018 316.972534,242.602997 
	C310.868073,246.376709 306.776337,251.170670 303.501282,257.606262 
	C299.973572,264.538361 293.174438,268.568054 284.474365,268.554901 
	C284.040436,266.584595 284.033813,265.050903 284.416077,263.428589 
	C299.174255,260.266357 305.433563,248.412979 300.264893,234.526047 
	C299.675781,232.943359 300.603180,230.796234 300.827423,228.910828 
	C302.552368,230.023193 304.937103,230.753372 305.852966,232.334396 
	C307.355957,234.929077 307.905579,238.076035 308.982635,241.374054 
	C311.512756,239.743744 313.726044,238.317581 315.939331,236.891418 
z"/>
<path fill="#F7F7F7" opacity="1.000000" stroke="none" 
	d="
M203.402191,318.236023 
	C206.380783,317.880951 209.023071,317.612274 208.118439,321.455872 
	C211.380325,319.949005 214.545502,318.486816 218.477020,316.670624 
	C218.659760,319.336334 218.766068,320.887299 218.869003,322.388763 
	C209.137009,324.874817 208.083817,326.234375 208.071091,336.068726 
	C208.064880,340.874664 208.070007,345.680603 208.070007,350.749908 
	C206.235916,350.749908 204.663651,350.749908 203.003464,350.749908 
	C203.003464,339.941925 203.003464,329.172119 203.402191,318.236023 
z"/>
<path fill="#DF3D91" opacity="1.000000" stroke="none" 
	d="
M288.689606,103.608307 
	C288.736938,105.608795 288.438507,107.378609 287.683228,109.539085 
	C276.474274,107.718109 268.567139,111.697731 263.110840,121.010986 
	C262.108307,119.116905 261.105804,117.222824 259.928772,114.959122 
	C266.506134,103.768532 276.703430,101.733185 288.689606,103.608307 
z"/>
<path fill="#DF3D91" opacity="1.000000" stroke="none" 
	d="
M284.027191,263.517181 
	C284.033813,265.050903 284.040436,266.584595 284.064453,268.501953 
	C273.751801,270.168274 265.908478,266.074402 259.930420,257.428894 
	C260.829193,255.496490 261.816254,253.891739 263.328430,252.291290 
	C268.093109,260.503601 275.101135,263.734467 284.027191,263.517181 
z"/>
<path fill="#191D27" opacity="1.000000" stroke="none" 
	d="
M226.190674,262.621033 
	C217.320526,265.844086 210.309067,262.531464 204.742813,256.385101 
	C198.860931,249.890228 198.491089,242.163971 201.751968,234.068695 
	C202.324539,232.647278 201.442307,230.639893 201.231934,228.903107 
	C199.561920,229.775681 197.171310,230.232208 196.375916,231.609772 
	C194.845825,234.259766 194.218933,237.431259 192.910461,241.292358 
	C190.558594,239.672012 188.108124,237.983704 185.325287,236.240692 
	C177.777344,228.346481 172.261703,219.596558 171.768494,208.636292 
	C171.551010,203.803299 172.342468,198.924896 172.700272,193.711349 
	C178.320587,198.579651 183.212265,202.816803 188.657104,207.357269 
	C192.807068,210.213394 196.547180,212.588867 199.971130,215.355576 
	C207.334641,221.305573 215.505859,224.341995 224.936584,222.315079 
	C226.652222,221.946350 227.961456,219.686752 229.458298,218.300049 
	C227.627884,217.647186 225.685547,216.223785 223.985809,216.470627 
	C215.151077,217.753662 207.770462,215.259460 202.166626,208.417450 
	C196.289703,201.242020 195.259537,193.159119 198.954620,184.568344 
	C199.938309,182.281372 201.588409,179.420288 198.146942,178.414185 
	C196.930176,178.058456 193.565170,180.718567 193.246918,182.394180 
	C192.058395,188.651627 191.726456,195.071762 191.073181,201.430878 
	C174.103439,189.971512 168.245468,170.524094 175.581696,151.502060 
	C178.893646,142.914566 185.161346,137.267746 192.646484,132.104462 
	C195.033569,136.990097 197.084351,141.972198 199.244766,147.220657 
	C196.444870,149.044373 192.870346,150.986252 189.828568,153.558197 
	C188.726303,154.490204 188.898148,156.929077 188.488647,158.680374 
	C190.236481,158.526321 192.462860,159.010544 193.655716,158.116241 
	C202.418945,151.546234 209.531525,150.904709 219.769485,156.662689 
	C230.063751,166.581161 230.501770,177.119705 221.876129,187.617340 
	C220.812119,188.912247 221.045654,191.273346 220.677917,193.140381 
	C222.551666,192.760941 224.974335,193.002640 226.214752,191.906509 
	C239.426453,180.231476 235.958374,157.348877 220.009308,149.982376 
	C218.045837,149.115875 216.155197,147.977417 214.106598,147.428680 
	C203.793732,144.666214 198.172974,135.948563 200.135605,125.504517 
	C202.026047,115.444611 212.119049,107.667664 222.064270,109.476730 
	C226.255539,110.239143 230.086807,112.980736 234.378540,114.972763 
	C239.105713,120.348877 240.408340,126.470375 240.389984,133.192337 
	C240.293167,168.619675 240.267746,204.047668 240.391403,239.474823 
	C240.428619,250.135513 236.878983,258.274445 226.190674,262.621033 
z"/>
<path fill="#019EF9" opacity="1.000000" stroke="none" 
	d="
M191.046127,201.795105 
	C191.726456,195.071762 192.058395,188.651627 193.246918,182.394180 
	C193.565170,180.718567 196.930176,178.058456 198.146942,178.414185 
	C201.588409,179.420288 199.938309,182.281372 198.954620,184.568344 
	C195.259537,193.159119 196.289703,201.242020 202.166626,208.417450 
	C207.770462,215.259460 215.151077,217.753662 223.985809,216.470627 
	C225.685547,216.223785 227.627884,217.647186 229.458298,218.300049 
	C227.961456,219.686752 226.652222,221.946350 224.936584,222.315079 
	C215.505859,224.341995 207.334641,221.305573 199.971130,215.355576 
	C196.547180,212.588867 192.807068,210.213394 189.002167,207.380951 
	C189.535706,205.453995 190.277390,203.806671 191.046127,201.795105 
z"/>
<path fill="#1B1C26" opacity="1.000000" stroke="none" 
	d="
M284.416077,263.428589 
	C275.101135,263.734467 268.093109,260.503601 263.621826,252.070557 
	C262.824036,247.753311 261.781494,243.662857 261.766724,239.568665 
	C261.637543,203.777481 261.655273,167.985535 261.750977,132.194122 
	C261.760162,128.749832 262.592285,125.307732 263.076599,121.437805 
	C268.567139,111.697731 276.474274,107.718109 287.630035,109.917786 
	C304.889404,116.946732 305.223389,134.675186 295.832947,143.997131 
	C293.274811,145.316147 291.274933,146.499161 289.115906,147.011902 
	C278.899994,149.438019 271.868774,155.380432 268.773682,165.465851 
	C265.781281,175.216782 268.361176,183.866333 275.022644,191.315750 
	C276.539948,193.012527 278.743378,195.754181 281.095520,192.841888 
	C281.826447,191.936905 280.342163,189.039459 279.580597,187.173080 
	C277.797119,182.802399 274.646881,178.628494 274.177551,174.151871 
	C272.899353,161.959915 281.985626,153.484238 295.943176,152.739227 
	C299.962219,154.575867 303.926880,156.549301 308.027893,158.179749 
	C309.600769,158.805054 311.484894,158.647537 313.227173,158.846725 
	C312.795258,157.007202 312.968414,154.471970 311.811646,153.465912 
	C308.976135,150.999847 305.527130,149.239182 302.290894,147.172913 
	C304.560150,142.531494 306.978607,137.584930 309.723083,132.690887 
	C331.823975,146.409363 334.255463,173.207047 322.441956,190.233261 
	C319.740265,194.127060 315.849304,197.195679 311.858856,200.719940 
	C311.205048,198.320450 311.545990,195.782455 311.114288,193.383514 
	C310.357574,189.178528 309.412262,184.952530 307.926880,180.966003 
	C307.461395,179.716736 305.007385,179.208405 303.463593,178.360916 
	C303.168365,180.098083 302.062317,182.246902 302.703003,183.508926 
	C309.308197,196.519379 301.828430,212.657104 287.624847,216.246155 
	C283.631531,216.223236 280.028595,215.982407 276.463989,216.250748 
	C275.091156,216.354080 273.805511,217.615540 272.480164,218.349335 
	C273.303894,219.586121 274.034485,221.803528 274.967194,221.892075 
	C279.296265,222.303101 283.681366,222.123932 288.435059,222.153473 
	C292.671265,220.345535 297.221313,219.299301 300.193726,216.548386 
	C304.175903,212.862885 308.318665,209.703964 313.070892,207.225296 
	C318.218384,203.048035 323.365875,198.870789 328.423737,194.766266 
	C333.813812,207.709534 328.682709,225.596252 316.078613,236.587952 
	C313.726044,238.317581 311.512756,239.743744 308.982635,241.374054 
	C307.905579,238.076035 307.355957,234.929077 305.852966,232.334396 
	C304.937103,230.753372 302.552368,230.023193 300.827423,228.910828 
	C300.603180,230.796234 299.675781,232.943359 300.264893,234.526047 
	C305.433563,248.412979 299.174255,260.266357 284.416077,263.428589 
z"/>
<path fill="#CE59C1" opacity="1.000000" stroke="none" 
	d="
M288.030518,216.231415 
	C301.828430,212.657104 309.308197,196.519379 302.703003,183.508926 
	C302.062317,182.246902 303.168365,180.098083 303.463593,178.360916 
	C305.007385,179.208405 307.461395,179.716736 307.926880,180.966003 
	C309.412262,184.952530 310.357574,189.178528 311.114288,193.383514 
	C311.545990,195.782455 311.205048,198.320450 311.631287,200.965668 
	C312.377594,202.903183 312.704590,204.670853 313.051270,206.831909 
	C308.318665,209.703964 304.175903,212.862885 300.193726,216.548386 
	C297.221313,219.299301 292.671265,220.345535 288.421051,221.729050 
	C288.022400,219.615280 288.026459,217.923340 288.030518,216.231415 
z"/>
<path fill="#026DEA" opacity="1.000000" stroke="none" 
	d="
M220.018509,150.452454 
	C235.958374,157.348877 239.426453,180.231476 226.214752,191.906509 
	C224.974335,193.002640 222.551666,192.760941 220.677917,193.140381 
	C221.045654,191.273346 220.812119,188.912247 221.876129,187.617340 
	C230.501770,177.119705 230.063751,166.581161 220.106842,156.847244 
	C219.945572,154.718918 219.986649,152.820740 220.018509,150.452454 
z"/>
<path fill="#1B1C26" opacity="1.000000" stroke="none" 
	d="
M330.065521,344.158691 
	C325.319244,347.451477 320.743805,347.664368 316.406036,344.414398 
	C312.061798,341.159607 311.253326,336.385651 312.233765,331.430939 
	C313.130249,326.900299 315.852722,323.038025 320.651306,322.893341 
	C324.092285,322.789642 328.284241,323.896179 330.909363,325.999878 
	C334.822174,329.135529 334.803680,334.221924 333.384155,338.880280 
	C332.830719,340.696442 331.392181,342.242828 330.065521,344.158691 
z"/>
<path fill="#1B1C26" opacity="1.000000" stroke="none" 
	d="
M272.725586,327.997955 
	C277.382690,322.119720 282.860809,320.782440 288.086090,323.967163 
	C293.179047,327.071289 294.988464,334.996552 291.939178,340.843781 
	C289.337158,345.833252 283.685608,347.971069 278.362427,345.979492 
	C271.975037,343.589752 269.654144,336.571198 272.725586,327.997955 
z"/>
<path fill="#1B1C26" opacity="1.000000" stroke="none" 
	d="
M236.183014,346.068359 
	C230.054703,343.477234 228.492599,338.742676 228.862549,332.971344 
	C229.152863,328.442169 231.242538,325.057312 235.416534,323.209961 
	C239.872147,321.238007 245.025879,322.511627 248.086548,326.128815 
	C251.373291,330.013184 251.893784,336.412994 249.304245,341.100800 
	C246.794189,345.644745 242.536789,347.334930 236.183014,346.068359 
z"/>
<path fill="#DF3D91" opacity="1.000000" stroke="none" 
	d="
M295.946289,152.311493 
	C281.985626,153.484238 272.899353,161.959915 274.177551,174.151871 
	C274.646881,178.628494 277.797119,182.802399 279.580597,187.173080 
	C280.342163,189.039459 281.826447,191.936905 281.095520,192.841888 
	C278.743378,195.754181 276.539948,193.012527 275.022644,191.315750 
	C268.361176,183.866333 265.781281,175.216782 268.773682,165.465851 
	C271.868774,155.380432 278.899994,149.438019 289.115906,147.011902 
	C291.274933,146.499161 293.274811,145.316147 295.663757,144.303085 
	C295.969482,146.737396 295.959442,149.310577 295.946289,152.311493 
z"/>
<path fill="#DF3D91" opacity="1.000000" stroke="none" 
	d="
M287.624847,216.246155 
	C288.026459,217.923340 288.022400,219.615280 288.032349,221.731628 
	C283.681366,222.123932 279.296265,222.303101 274.967194,221.892075 
	C274.034485,221.803528 273.303894,219.586121 272.480164,218.349335 
	C273.805511,217.615540 275.091156,216.354080 276.463989,216.250748 
	C280.028595,215.982407 283.631531,216.223236 287.624847,216.246155 
z"/>
</svg>