<svg version="1.1" id="Layer_1" xmlns="http://www.w3.org/2000/svg" xmlns:xlink="http://www.w3.org/1999/xlink" x="0px" y="0px"
	 width="100%" viewBox="0 0 600 600" enable-background="new 0 0 600 600" xml:space="preserve">
<path fill="#191C25" opacity="1.000000" stroke="none" 
	d="
M307.000000,601.000000 
	C204.666672,601.000000 102.833336,601.000000 1.000000,601.000000 
	C1.000000,401.000000 1.000000,201.000000 1.000000,1.000000 
	C201.000000,1.000000 401.000000,1.000000 601.000000,1.000000 
	C601.000000,201.000000 601.000000,401.000000 601.000000,601.000000 
	C503.166656,601.000000 405.333344,601.000000 307.000000,601.000000 
M343.277344,367.808899 
	C350.687378,364.775970 354.646637,358.559845 358.233948,351.893829 
	C359.172211,350.150360 360.641724,348.336243 362.335144,347.409790 
	C383.966736,335.575439 392.895050,312.540680 384.871582,289.079834 
	C384.313324,287.447479 383.872192,285.384308 384.370605,283.842926 
	C388.488312,271.108948 387.975433,259.010956 381.893188,246.749435 
	C377.561859,238.017731 371.533905,231.622437 363.315155,226.764175 
	C361.274994,225.558197 359.212097,223.375275 358.454865,221.192139 
	C355.367554,212.291489 349.219086,206.614029 340.495575,204.107544 
	C322.897919,199.051300 307.299377,211.345367 307.251038,230.153961 
	C307.155151,267.444000 307.456635,304.736572 307.121887,342.023865 
	C306.956360,360.463806 322.594513,373.764832 343.277344,367.808899 
M296.280548,351.267151 
	C296.757721,347.317383 297.637115,343.368866 297.649170,339.417694 
	C297.757019,304.105164 297.724060,268.792145 297.687714,233.479309 
	C297.684967,230.825256 297.448547,228.158127 297.130493,225.519989 
	C295.514801,212.117477 285.197113,204.727493 273.759888,203.356613 
	C262.013336,201.948669 251.307632,209.385254 246.850601,220.728058 
	C245.927170,223.078110 243.873825,225.488602 241.693390,226.761429 
	C222.138550,238.176682 213.341339,260.984222 220.333755,282.345642 
	C220.989731,284.349579 221.022385,286.976624 220.314362,288.943604 
	C212.671432,310.176788 220.311615,335.655151 241.786377,346.846924 
	C244.006012,348.003693 246.024643,350.436890 247.083313,352.758209 
	C249.901657,358.937958 254.088013,363.897217 260.063324,366.713043 
	C272.595886,372.618866 290.055420,368.362732 296.280548,351.267151 
z"/>
<path fill="#B76EE3" opacity="1.000000" stroke="none" 
	d="
M342.905121,367.921936 
	C322.594513,373.764832 306.956360,360.463806 307.121887,342.023865 
	C307.456635,304.736572 307.155151,267.444000 307.251038,230.153961 
	C307.299377,211.345367 322.897919,199.051300 340.495575,204.107544 
	C349.219086,206.614029 355.367554,212.291489 358.454865,221.192139 
	C359.212097,223.375275 361.274994,225.558197 363.315155,226.764175 
	C371.533905,231.622437 377.561859,238.017731 381.893188,246.749435 
	C387.975433,259.010956 388.488312,271.108948 384.370605,283.842926 
	C383.872192,285.384308 384.313324,287.447479 384.871582,289.079834 
	C392.895050,312.540680 383.966736,335.575439 362.335144,347.409790 
	C360.641724,348.336243 359.172211,350.150360 358.233948,351.893829 
	C354.646637,358.559845 350.687378,364.775970 342.905121,367.921936 
M351.424866,308.794952 
	C354.828644,304.068451 357.196960,298.919922 356.318695,292.981293 
	C355.816711,289.587006 354.280334,286.352844 353.670166,282.963654 
	C353.441986,281.696136 354.520569,280.193359 355.003357,278.797882 
	C356.266937,279.246918 358.033264,279.329102 358.686188,280.223816 
	C359.926758,281.923706 360.959961,284.015137 361.312012,286.075073 
	C362.132385,290.874573 362.497589,295.751892 363.044952,300.578217 
	C373.488464,296.069550 381.553986,280.340271 380.833740,265.783997 
	C380.119446,251.347595 370.668304,236.559509 360.440094,233.352036 
	C358.121979,238.095123 355.833252,242.778137 353.550568,247.448761 
	C356.556488,249.368820 360.111420,251.215668 363.083618,253.746811 
	C364.271698,254.758606 364.174866,257.279266 364.662903,259.113068 
	C362.901215,258.919403 360.696350,259.338257 359.448059,258.435028 
	C349.624756,251.327164 338.046509,251.300140 331.379059,258.654388 
	C322.823425,268.091309 322.934509,278.293518 331.420959,288.201508 
	C332.426422,289.375397 332.230133,291.578674 332.590912,293.304810 
	C330.837799,292.968475 328.923401,292.957397 327.382385,292.193268 
	C326.140869,291.577606 325.248749,290.125732 324.375336,288.919098 
	C313.226929,273.517578 321.108093,252.407043 339.643341,247.735413 
	C342.130920,247.108444 344.892700,246.307816 346.757843,244.696640 
	C353.885071,238.539856 355.509399,228.395340 351.135193,220.094284 
	C346.916138,212.087662 337.628906,208.077972 328.101013,210.100174 
	C318.639893,212.108185 312.752014,220.605240 312.727051,229.648132 
	C312.622131,267.641479 312.643311,305.635315 312.715729,343.628815 
	C312.730469,351.363098 316.402496,357.307251 322.991638,361.210419 
	C330.683502,365.766754 340.052887,364.951263 346.698059,358.909943 
	C352.273285,353.841400 355.941833,344.409424 351.999054,335.677094 
	C351.001160,333.466949 349.185455,330.589508 352.621490,329.456848 
	C353.777069,329.075928 356.540588,331.657684 357.623901,333.455078 
	C358.993774,335.727936 359.397980,338.582764 360.225616,341.208496 
	C378.722443,333.426727 386.134338,307.307587 379.181641,294.664581 
	C373.127380,301.555695 366.747559,307.899414 357.838409,310.865021 
	C357.041779,311.130188 356.521912,312.234375 355.879486,312.954224 
	C348.579010,321.134064 339.447144,324.472870 328.674835,322.735626 
	C326.998291,322.465271 325.614471,320.379791 324.095306,319.133636 
	C325.855499,318.424377 327.683075,316.976776 329.364502,317.130280 
	C337.855927,317.905518 345.210938,315.998016 351.424866,308.794952 
z"/>
<path fill="#B76EE3" opacity="1.000000" stroke="none" 
	d="
M296.163361,351.628693 
	C290.055420,368.362732 272.595886,372.618866 260.063324,366.713043 
	C254.088013,363.897217 249.901657,358.937958 247.083313,352.758209 
	C246.024643,350.436890 244.006012,348.003693 241.786377,346.846924 
	C220.311615,335.655151 212.671432,310.176788 220.314362,288.943604 
	C221.022385,286.976624 220.989731,284.349579 220.333755,282.345642 
	C213.341339,260.984222 222.138550,238.176682 241.693390,226.761429 
	C243.873825,225.488602 245.927170,223.078110 246.850601,220.728058 
	C251.307632,209.385254 262.013336,201.948669 273.759888,203.356613 
	C285.197113,204.727493 295.514801,212.117477 297.130493,225.519989 
	C297.448547,228.158127 297.684967,230.825256 297.687714,233.479309 
	C297.724060,268.792145 297.757019,304.105164 297.649170,339.417694 
	C297.637115,343.368866 296.757721,347.317383 296.163361,351.628693 
M274.689392,286.934113 
	C281.799377,277.389374 281.515259,266.142059 273.853729,258.824036 
	C266.740753,252.030045 254.701645,250.016006 245.242798,257.912811 
	C244.155167,258.820831 241.957535,258.399261 240.274551,258.594177 
	C240.832367,256.903137 240.886642,254.608444 242.047394,253.640182 
	C244.921143,251.242920 248.301071,249.452423 251.295761,247.534592 
	C249.044754,242.531036 246.833099,237.614960 244.630554,232.719162 
	C231.880722,237.421799 222.898727,253.764038 223.594254,270.474365 
	C224.050308,281.431152 232.406723,299.210785 242.725250,300.930145 
	C242.651428,299.390656 242.329971,297.899933 242.557953,296.498596 
	C243.351624,291.620087 244.077026,286.699371 245.417130,281.961243 
	C245.782303,280.670074 248.215454,279.963837 249.699554,278.989136 
	C249.883118,280.746552 250.716217,282.753326 250.151749,284.223541 
	C242.991562,302.872894 255.118500,318.790680 275.310181,317.229218 
	C276.932800,317.103760 278.655914,318.277985 280.332306,318.848236 
	C278.884277,320.120880 277.580872,322.245270 275.963409,322.519897 
	C268.656586,323.760590 261.651703,322.433594 255.458572,318.205841 
	C248.233459,313.273621 241.068665,308.242554 234.057343,303.013519 
	C231.705368,301.259430 229.814545,298.842651 227.894043,296.575348 
	C227.074997,295.608398 226.720093,294.248230 225.803345,292.333984 
	C217.600830,310.403595 228.733139,336.832184 244.953400,341.311920 
	C245.538406,339.280090 245.925858,337.154694 246.761963,335.223541 
	C247.862366,332.681946 248.185898,328.134094 252.137543,329.594208 
	C255.756409,330.931396 252.757706,334.189117 252.005676,336.476349 
	C249.298492,344.710022 250.818436,352.389404 256.780853,358.221649 
	C262.658356,363.970856 270.265228,365.828674 278.460052,362.860107 
	C287.463287,359.598694 292.371735,352.102509 292.395355,340.843048 
	C292.471222,304.677979 292.452789,268.512604 292.372681,232.347565 
	C292.366119,229.384735 291.984192,226.315475 291.149078,223.480545 
	C287.767548,212.001633 273.088196,205.697144 262.824860,211.141632 
	C254.233368,215.699203 250.022171,223.044830 250.966049,231.826889 
	C251.929062,240.787125 256.910980,246.169296 266.980774,249.128387 
	C285.357788,254.528610 291.487061,277.364227 278.134003,291.138855 
	C276.892456,292.419617 274.553223,292.636322 272.723663,293.347076 
	C273.216553,291.385834 273.709473,289.424622 274.689392,286.934113 
z"/>
<path fill="#191C25" opacity="1.000000" stroke="none" 
	d="
M351.189575,309.076965 
	C345.210938,315.998016 337.855927,317.905518 329.364502,317.130280 
	C327.683075,316.976776 325.855499,318.424377 324.095306,319.133636 
	C325.614471,320.379791 326.998291,322.465271 328.674835,322.735626 
	C339.447144,324.472870 348.579010,321.134064 355.879486,312.954224 
	C356.521912,312.234375 357.041779,311.130188 357.838409,310.865021 
	C366.747559,307.899414 373.127380,301.555695 379.181641,294.664581 
	C386.134338,307.307587 378.722443,333.426727 360.225616,341.208496 
	C359.397980,338.582764 358.993774,335.727936 357.623901,333.455078 
	C356.540588,331.657684 353.777069,329.075928 352.621490,329.456848 
	C349.185455,330.589508 351.001160,333.466949 351.999054,335.677094 
	C355.941833,344.409424 352.273285,353.841400 346.698059,358.909943 
	C340.052887,364.951263 330.683502,365.766754 322.991638,361.210419 
	C316.402496,357.307251 312.730469,351.363098 312.715729,343.628815 
	C312.643311,305.635315 312.622131,267.641479 312.727051,229.648132 
	C312.752014,220.605240 318.639893,212.108185 328.101013,210.100174 
	C337.628906,208.077972 346.916138,212.087662 351.135193,220.094284 
	C355.509399,228.395340 353.885071,238.539856 346.757843,244.696640 
	C344.892700,246.307816 342.130920,247.108444 339.643341,247.735413 
	C321.108093,252.407043 313.226929,273.517578 324.375336,288.919098 
	C325.248749,290.125732 326.140869,291.577606 327.382385,292.193268 
	C328.923401,292.957397 330.837799,292.968475 332.590912,293.304810 
	C332.230133,291.578674 332.426422,289.375397 331.420959,288.201508 
	C322.934509,278.293518 322.823425,268.091309 331.379059,258.654388 
	C338.046509,251.300140 349.624756,251.327164 359.448059,258.435028 
	C360.696350,259.338257 362.901215,258.919403 364.662903,259.113068 
	C364.174866,257.279266 364.271698,254.758606 363.083618,253.746811 
	C360.111420,251.215668 356.556488,249.368820 353.550568,247.448761 
	C355.833252,242.778137 358.121979,238.095123 360.440094,233.352036 
	C370.668304,236.559509 380.119446,251.347595 380.833740,265.783997 
	C381.553986,280.340271 373.488464,296.069550 363.044952,300.578217 
	C362.497589,295.751892 362.132385,290.874573 361.312012,286.075073 
	C360.959961,284.015137 359.926758,281.923706 358.686188,280.223816 
	C358.033264,279.329102 356.266937,279.246918 355.003357,278.797882 
	C354.520569,280.193359 353.441986,281.696136 353.670166,282.963654 
	C354.280334,286.352844 355.816711,289.587006 356.318695,292.981293 
	C357.196960,298.919922 354.828644,304.068451 351.189575,309.076965 
z"/>
<path fill="#191C25" opacity="1.000000" stroke="none" 
	d="
M274.445892,287.198730 
	C273.709473,289.424622 273.216553,291.385834 272.723663,293.347076 
	C274.553223,292.636322 276.892456,292.419617 278.134003,291.138855 
	C291.487061,277.364227 285.357788,254.528610 266.980774,249.128387 
	C256.910980,246.169296 251.929062,240.787125 250.966049,231.826889 
	C250.022171,223.044830 254.233368,215.699203 262.824860,211.141632 
	C273.088196,205.697144 287.767548,212.001633 291.149078,223.480545 
	C291.984192,226.315475 292.366119,229.384735 292.372681,232.347565 
	C292.452789,268.512604 292.471222,304.677979 292.395355,340.843048 
	C292.371735,352.102509 287.463287,359.598694 278.460052,362.860107 
	C270.265228,365.828674 262.658356,363.970856 256.780853,358.221649 
	C250.818436,352.389404 249.298492,344.710022 252.005676,336.476349 
	C252.757706,334.189117 255.756409,330.931396 252.137543,329.594208 
	C248.185898,328.134094 247.862366,332.681946 246.761963,335.223541 
	C245.925858,337.154694 245.538406,339.280090 244.953400,341.311920 
	C228.733139,336.832184 217.600830,310.403595 225.803345,292.333984 
	C226.720093,294.248230 227.074997,295.608398 227.894043,296.575348 
	C229.814545,298.842651 231.705368,301.259430 234.057343,303.013519 
	C241.068665,308.242554 248.233459,313.273621 255.458572,318.205841 
	C261.651703,322.433594 268.656586,323.760590 275.963409,322.519897 
	C277.580872,322.245270 278.884277,320.120880 280.332306,318.848236 
	C278.655914,318.277985 276.932800,317.103760 275.310181,317.229218 
	C255.118500,318.790680 242.991562,302.872894 250.151749,284.223541 
	C250.716217,282.753326 249.883118,280.746552 249.699554,278.989136 
	C248.215454,279.963837 245.782303,280.670074 245.417130,281.961243 
	C244.077026,286.699371 243.351624,291.620087 242.557953,296.498596 
	C242.329971,297.899933 242.651428,299.390656 242.725250,300.930145 
	C232.406723,299.210785 224.050308,281.431152 223.594254,270.474365 
	C222.898727,253.764038 231.880722,237.421799 244.630554,232.719162 
	C246.833099,237.614960 249.044754,242.531036 251.295761,247.534592 
	C248.301071,249.452423 244.921143,251.242920 242.047394,253.640182 
	C240.886642,254.608444 240.832367,256.903137 240.274567,258.594177 
	C241.957535,258.399261 244.155167,258.820831 245.242798,257.912811 
	C254.701645,250.016006 266.740753,252.030045 273.853729,258.824036 
	C281.515259,266.142059 281.799377,277.389374 274.445892,287.198730 
z"/>
</svg>