<svg version="1.1" id="Layer_1" xmlns="http://www.w3.org/2000/svg" xmlns:xlink="http://www.w3.org/1999/xlink" x="0px" y="0px"
	 width="100%" viewBox="0 0 594 264" enable-background="new 0 0 594 264" xml:space="preserve">
<path fill="#FFFEFE" opacity="1.000000" stroke="none" 
	d="
M410.000000,265.000000 
	C273.333344,265.000000 137.166702,265.000000 1.000036,265.000000 
	C1.000024,177.000031 1.000024,89.000053 1.000012,1.000060 
	C198.999954,1.000040 396.999908,1.000040 594.999878,1.000020 
	C594.999939,88.999939 594.999939,176.999878 595.000000,264.999908 
	C533.500000,265.000000 472.000000,265.000000 410.000000,265.000000 
M106.321083,174.282867 
	C106.613625,174.502991 106.906166,174.723099 107.386215,175.161423 
	C107.386215,175.161423 107.398117,175.448868 107.225433,176.274887 
	C107.705231,176.866165 108.185036,177.457428 108.740456,178.795822 
	C108.155891,179.861221 107.571327,180.926636 106.396515,182.036728 
	C106.294800,182.696320 106.193092,183.355927 106.211205,184.637665 
	C107.207809,185.977722 108.204414,187.317764 109.146317,189.068176 
	C109.430450,189.103683 109.714584,189.139191 110.691902,189.096512 
	C112.310349,188.287323 113.928795,187.478134 116.386459,186.922897 
	C117.783890,187.134323 119.181320,187.345764 120.867523,187.549652 
	C120.867523,187.549652 121.083855,187.741089 121.254883,188.313202 
	C121.591621,188.497025 121.928368,188.680847 122.628494,189.315338 
	C122.751701,189.876328 122.874916,190.437332 122.642784,191.205704 
	C122.861931,191.432281 123.081085,191.658844 123.464951,192.174011 
	C123.464951,192.174011 123.391449,192.498047 123.226669,193.063705 
	C123.428932,193.376480 123.631187,193.689240 124.353157,194.443756 
	C125.235100,194.644196 126.117043,194.844620 127.511551,195.587708 
	C129.383530,195.849503 131.806229,197.186295 131.588776,193.171631 
	C131.588776,193.171631 131.745148,192.909775 132.155945,192.871277 
	C132.257172,192.782257 132.458420,192.640366 132.443756,192.612610 
	C132.329269,192.396027 132.173279,192.201385 132.057785,191.301346 
	C132.418594,190.218124 132.779419,189.134918 133.946594,188.023529 
	C136.134567,187.558136 138.322540,187.092743 141.078766,186.744232 
	C141.749725,187.107910 142.420670,187.471573 143.130692,188.222412 
	C143.423889,188.211227 143.717102,188.200027 144.575790,188.109985 
	C144.941208,188.003952 145.306610,187.897919 146.251678,187.733139 
	C146.426910,187.410721 146.602127,187.088303 146.958008,187.011002 
	C146.958008,187.011002 146.768112,186.769211 147.319809,186.710236 
	C147.469681,186.395874 147.619537,186.081497 147.850769,186.022476 
	C147.850769,186.022476 147.746185,185.774307 148.243561,185.775314 
	C148.429840,185.237137 148.616119,184.698959 148.782181,183.487778 
	C148.802338,183.264252 148.822510,183.040710 148.988708,182.361633 
	C148.606964,181.932999 148.225235,181.504364 147.424316,180.749832 
	C147.204819,180.272369 146.985321,179.794907 146.924408,178.489853 
	C147.290848,176.340302 147.657272,174.190735 148.504379,171.597336 
	C149.342545,171.425644 150.180710,171.253952 151.384079,171.543732 
	C152.306076,170.707962 153.228073,169.872192 154.072205,168.279968 
	C154.115005,167.522705 154.157822,166.765457 154.652710,165.587387 
	C154.391251,164.745789 154.129776,163.904205 153.230881,162.811661 
	C151.481094,162.231598 149.731308,161.651535 147.816544,160.575516 
	C147.534607,160.385696 147.252655,160.195877 146.764542,159.733765 
	C146.764542,159.733765 146.717056,159.395523 146.771729,158.812210 
	C146.514236,158.540466 146.256744,158.268707 145.629822,157.269455 
	C145.959885,155.778076 146.289963,154.286682 147.307495,152.709167 
	C148.943161,151.431610 150.066391,150.159134 146.769501,148.419083 
	C144.576630,143.573425 141.642456,145.088303 137.525146,147.224701 
	C136.801010,147.341095 136.076889,147.457474 134.746811,147.472427 
	C134.171799,147.260422 133.596786,147.048416 132.771149,146.405945 
	C132.523560,146.151794 132.222382,146.029114 131.636337,145.849014 
	C131.636337,145.849014 131.582535,145.555267 131.799088,144.903152 
	C131.348587,144.239304 130.898087,143.575455 130.190567,142.141785 
	C127.998772,138.289902 125.126976,139.387314 121.673401,141.214767 
	C121.668495,141.806335 121.663597,142.397903 121.739502,143.632492 
	C121.667412,144.054977 121.595322,144.477463 120.937553,145.047638 
	C119.966560,146.070053 118.995560,147.092468 117.745689,148.292587 
	C117.745689,148.292587 117.415222,148.280533 116.423157,148.134644 
	C115.766487,148.245193 115.109810,148.355759 113.931732,148.405518 
	C113.626579,148.238037 113.321426,148.070557 112.772026,147.441406 
	C112.454651,147.326111 112.137276,147.210815 111.243462,146.872482 
	C109.530365,147.602707 107.817268,148.332947 105.499626,149.046555 
	C105.340515,149.698883 105.181396,150.351196 105.118202,151.442184 
	C105.118202,151.442184 105.092804,151.890488 104.731926,152.610931 
	C104.406418,153.639084 104.080902,154.667252 103.223564,155.322968 
	C102.479858,154.554077 101.736145,153.785187 101.033409,152.131256 
	C100.954155,150.650284 100.874901,149.169312 101.180748,147.096909 
	C102.006264,145.718430 103.667252,144.164551 103.424919,143.010254 
	C103.177086,141.829666 101.151245,140.392593 99.749512,140.202026 
	C95.533363,139.628799 92.816971,138.385910 93.763695,133.320480 
	C93.938736,132.383896 92.633171,130.477173 91.667709,130.195724 
	C90.451180,129.841080 88.332619,130.221710 87.562767,131.113480 
	C84.662254,134.473312 82.173149,134.062347 79.164917,131.308105 
	C78.162140,130.389984 76.038445,129.623703 75.023888,130.089035 
	C73.985283,130.565399 73.183258,132.622437 73.144264,134.011917 
	C73.031303,138.037384 71.109985,139.568344 67.244873,139.695648 
	C65.859024,139.741302 63.816753,140.581924 63.341324,141.632950 
	C62.878967,142.655075 63.655956,144.745331 64.559471,145.781998 
	C67.198296,148.809662 67.639053,151.354126 64.391960,154.301636 
	C63.445553,155.160736 62.781788,157.349823 63.219906,158.429657 
	C63.659893,159.514099 65.660240,160.635834 66.933243,160.587799 
	C70.955551,160.435989 72.609344,162.224350 73.118790,166.030411 
	C73.324539,167.567551 74.287598,169.465591 75.511635,170.231323 
	C76.249733,170.693100 78.108650,169.095764 79.542503,168.775650 
	C81.687912,168.296722 83.902466,168.127548 86.196533,168.361862 
	C86.483536,168.566513 86.770546,168.771149 87.636841,169.452667 
	C88.768120,169.789688 89.899399,170.126709 91.440697,170.774185 
	C91.939636,170.467056 92.438576,170.159927 93.259491,169.319916 
	C93.427353,168.329620 93.595215,167.339325 93.943649,165.530304 
	C93.969101,164.697342 93.994553,163.864365 94.229622,162.584061 
	C94.432663,162.309647 94.696419,162.119385 95.846977,162.029144 
	C97.893112,162.546692 99.939255,163.064240 101.305283,163.916473 
	C100.532555,165.611710 99.759827,167.306931 98.465614,169.397476 
	C99.007309,170.246445 99.549004,171.095413 100.732216,172.001602 
	C101.151482,172.087814 101.570740,172.174011 102.397110,172.658112 
	C102.764664,172.637497 103.132217,172.616882 104.030861,172.538025 
	C104.357346,172.668945 104.683830,172.799866 105.250786,173.427917 
	C105.590889,173.505569 105.930984,173.583237 106.220955,173.781479 
	C106.220955,173.781479 106.330566,173.710480 106.321083,174.282867 
M172.216049,167.393402 
	C172.505737,167.587021 172.795425,167.780655 173.537827,168.507431 
	C175.027969,169.207855 176.555496,170.472641 177.992920,170.377365 
	C178.743408,170.327621 179.523468,167.942245 179.960724,166.511139 
	C180.958084,163.246857 182.341614,160.814758 186.435165,161.161926 
	C187.768082,161.274963 190.046677,160.644760 190.374542,159.779327 
	C190.875046,158.458145 190.592224,156.189438 189.694412,155.114395 
	C187.250473,152.188019 187.643341,149.928070 189.984360,147.224045 
	C190.985596,146.067535 191.741486,144.050537 191.456787,142.660492 
	C191.272278,141.759583 189.064316,140.931152 187.656586,140.688965 
	C183.929688,140.047714 182.198380,138.242020 182.474930,134.300980 
	C182.566803,132.991867 181.821259,130.903641 180.851288,130.438812 
	C179.839737,129.954071 177.773224,130.601227 176.732315,131.447632 
	C173.597412,133.996674 171.070267,134.477463 168.344467,130.823181 
	C167.611969,129.841187 165.475616,129.262726 164.210312,129.538544 
	C163.302948,129.736328 162.232971,131.635864 162.169800,132.825760 
	C161.924835,137.440292 159.722244,138.895889 155.295441,138.227478 
	C152.475769,137.801743 150.256866,141.039185 151.471832,143.349442 
	C155.077255,150.205215 155.077240,150.205215 149.193222,154.665909 
	C150.049606,156.933212 150.153503,159.904114 154.516129,159.605194 
	C155.703934,159.719879 156.891724,159.834549 158.673859,160.345627 
	C159.056854,161.887833 159.439850,163.430023 159.248825,165.311218 
	C157.960968,166.906235 156.993683,168.421005 160.802139,169.063705 
	C162.091522,169.306198 163.380905,169.548691 165.272202,169.714844 
	C165.455826,169.376984 165.639450,169.039139 166.095428,168.227005 
	C166.641968,167.754364 167.188507,167.281708 168.605316,166.943451 
	C169.774231,166.917084 170.943130,166.890717 172.004272,166.998169 
	C172.004272,166.998169 172.114670,166.863358 172.216049,167.393402 
M130.271027,101.177170 
	C130.872635,106.501427 133.692520,112.217400 127.519829,116.776077 
	C119.626884,109.786499 127.813820,100.897217 124.065666,93.121361 
	C121.227097,93.121361 118.100235,93.155228 114.974457,93.111732 
	C111.908173,93.069084 110.424980,94.523224 110.190872,97.586761 
	C109.850014,102.046997 109.637535,106.557968 108.723213,110.911392 
	C108.400520,112.447853 106.176987,113.585083 104.821327,114.904594 
	C103.703812,113.513458 101.928703,112.262344 101.596878,110.703903 
	C100.735184,106.657005 100.879150,102.381180 99.869499,98.386864 
	C99.372276,96.419777 97.488243,93.835457 95.739311,93.366325 
	C92.675186,92.544441 89.231667,93.137009 85.995277,93.137009 
	C83.651833,101.172676 91.864738,109.822250 83.393524,117.056320 
	C76.026749,109.620216 83.078758,101.222946 81.161789,93.127960 
	C77.635902,93.127960 74.102295,92.690506 70.762253,93.305077 
	C68.984894,93.632118 66.362396,95.612625 66.146027,97.134628 
	C64.983429,105.312943 64.456970,113.581680 63.686420,122.089241 
	C106.461540,122.089241 148.780670,122.089241 191.406723,122.089241 
	C190.414413,114.686340 189.507355,107.795937 188.563705,100.910545 
	C187.367249,92.180382 187.041840,92.102470 178.322830,92.024124 
	C173.738968,91.982941 172.942261,93.755058 173.886978,97.839561 
	C174.743073,101.540894 175.346146,105.415314 175.228226,109.187386 
	C175.148621,111.733452 173.623825,114.234337 172.368683,117.837051 
	C164.214706,109.012169 171.594421,100.235153 169.064743,92.092972 
	C166.452576,92.092972 163.978973,92.079071 161.505585,92.095764 
	C155.671539,92.135147 154.513062,93.149948 153.919479,98.865685 
	C153.507141,102.836273 153.120697,106.811073 152.823257,110.791504 
	C152.643616,113.195312 152.034256,115.495888 149.149551,114.750717 
	C147.800568,114.402252 146.216660,112.512741 145.901306,111.068016 
	C144.914047,106.544930 144.432419,101.907143 143.847900,97.301987 
	C143.457489,94.226196 141.723801,93.021736 138.746155,93.111061 
	C135.983734,93.193932 133.216873,93.128738 130.131821,93.128738 
	C130.131821,96.002144 130.131821,98.138008 130.271027,101.177170 
M409.562958,139.499863 
	C409.562561,152.152206 409.654938,164.805664 409.504333,177.456223 
	C409.460022,181.179550 410.395111,182.781387 414.535645,182.722321 
	C424.546051,182.579529 424.548981,182.786850 424.547699,172.642273 
	C424.547516,171.143967 424.502808,169.644028 424.557495,168.147720 
	C424.661041,165.314194 424.821747,162.482742 424.982880,159.149948 
	C426.661316,159.797607 427.349182,159.908112 427.844818,160.276932 
	C440.460999,169.665054 465.122559,164.711517 470.329498,144.412674 
	C471.376740,140.330246 470.918762,135.831970 470.950226,131.523941 
	C471.073975,114.596558 455.455414,102.295517 438.341034,105.213669 
	C433.938354,105.964363 429.788849,108.199989 425.196533,109.872368 
	C425.146820,105.386810 422.180878,105.290382 418.977783,105.481827 
	C417.484375,105.571083 415.976318,105.597878 414.484894,105.500298 
	C410.841553,105.261902 409.455048,106.905540 409.510620,110.532242 
	C409.653473,119.852852 409.561676,129.177063 409.562958,139.499863 
M541.181152,154.645844 
	C546.641663,146.958191 548.260010,138.529312 546.827637,129.202499 
	C543.811462,109.562492 524.243591,99.075409 506.350739,107.734535 
	C504.762787,108.503021 503.174805,109.271477 501.159546,110.246712 
	C500.014374,105.260437 496.636505,105.372940 492.991272,105.453598 
	C485.433136,105.620850 485.436066,105.499321 485.435577,113.193558 
	C485.434357,132.333359 485.426636,151.473145 485.423187,170.612946 
	C485.420807,183.597198 485.422302,183.599915 498.580872,182.428711 
	C498.873962,182.402618 499.143707,182.114273 500.272797,181.446304 
	C500.272797,175.734802 500.234650,169.507385 500.310272,163.281342 
	C500.322845,162.244308 500.536987,160.678223 501.187286,160.321457 
	C501.920807,159.919022 503.364441,160.383621 504.307556,160.854828 
	C517.694885,167.543625 530.448120,165.587463 541.181152,154.645844 
M338.135315,155.325623 
	C349.981537,166.822861 363.089447,167.659439 377.400116,159.248032 
	C378.347900,163.844574 381.308960,164.184875 384.686584,163.868240 
	C386.170990,163.729095 387.684357,163.748718 389.174194,163.849548 
	C392.105225,164.047928 393.450714,162.825867 393.442505,159.817520 
	C393.396759,143.017883 393.461517,126.217781 393.338074,109.418938 
	C393.329041,108.187706 392.441132,106.358025 391.433136,105.844635 
	C387.255707,103.717033 379.478668,106.172539 376.985657,110.255341 
	C376.138550,109.819695 375.215057,109.462982 374.420593,108.918068 
	C365.663788,102.911674 356.580139,103.872047 347.325439,107.534981 
	C330.206573,114.310493 327.177338,141.181290 338.135315,155.325623 
M272.023193,118.539902 
	C270.615295,115.931488 269.627289,112.954880 267.722198,110.782478 
	C261.576477,103.774422 249.893005,102.695961 240.068039,107.852051 
	C235.478271,110.260735 234.869980,109.892365 234.817581,104.562340 
	C234.781555,100.898422 234.850464,97.233299 234.799194,93.569733 
	C234.643707,82.462250 236.367264,84.313881 225.371185,83.908356 
	C221.172592,83.753517 219.991714,85.125427 220.026367,89.259026 
	C220.207901,110.909966 220.045486,132.563522 220.139862,154.215561 
	C220.186920,165.009598 218.243088,163.639816 230.076553,163.916016 
	C233.896332,164.005157 234.944519,162.494629 234.875900,158.902908 
	C234.700958,149.745819 234.706131,140.579849 234.923035,131.424164 
	C234.983963,128.852341 235.618408,126.112335 236.706894,123.784859 
	C238.897079,119.101753 243.827499,116.610794 248.628204,117.559494 
	C253.624237,118.546791 257.245117,121.241882 257.483704,126.789528 
	C257.868774,135.744370 258.105652,144.706390 258.323639,153.667374 
	C258.601135,165.076889 256.035706,163.769806 269.300842,163.848694 
	C269.633728,163.850677 270.098389,163.973816 270.278046,163.803955 
	C271.336517,162.803345 273.221436,161.721024 273.208130,160.687073 
	C273.030914,146.896713 272.584900,133.109802 272.023193,118.539902 
M298.387238,163.843155 
	C305.004181,163.727310 304.996338,163.727264 305.029602,157.130844 
	C305.066498,149.815247 304.880096,142.488251 305.230347,135.187302 
	C305.609497,127.283997 311.555603,120.999107 319.411987,120.278984 
	C323.681274,119.887657 325.397614,118.199226 324.933258,113.992760 
	C324.733704,112.185425 324.826508,110.335022 324.908600,108.509674 
	C325.069672,104.927757 323.220642,103.941032 320.213196,105.128494 
	C315.371918,107.040031 310.637939,109.223167 305.385468,111.496330 
	C305.527924,104.227684 299.983032,105.590843 295.105591,105.439995 
	C290.906708,105.310127 289.252075,106.761612 289.325104,111.224022 
	C289.567291,126.019440 289.414276,140.821320 289.414337,155.620712 
	C289.414398,163.817795 289.415771,163.817795 298.387238,163.843155 
M129.806168,71.568123 
	C125.801643,70.729446 121.935402,71.793571 120.472473,75.402519 
	C119.382683,78.090942 119.661003,81.976402 120.769836,84.753960 
	C122.215263,88.374634 126.092239,88.886467 129.769547,88.316132 
	C133.528259,87.733170 135.546738,85.244102 136.238403,81.675636 
	C137.185791,76.787697 134.566772,73.855667 129.806168,71.568123 
M89.789246,86.185913 
	C94.269745,79.868713 91.478600,72.140953 84.501915,71.327164 
	C80.145851,70.819054 77.337242,73.299156 75.727440,76.572067 
	C74.033264,80.016533 74.612541,83.917480 77.797935,86.539078 
	C81.402702,89.505836 85.381866,89.254059 89.789246,86.185913 
M179.977020,79.472458 
	C179.621841,73.696747 177.181427,71.261566 171.744095,71.257187 
	C166.600281,71.253044 163.406372,74.046761 163.107346,78.811775 
	C162.816299,83.449593 166.407974,87.794914 170.908508,88.249886 
	C175.182022,88.681915 179.096054,85.246620 179.977020,79.472458 
z"/>
<path fill="#B74665" opacity="1.000000" stroke="none" 
	d="
M130.201416,100.725525 
	C130.131821,98.138008 130.131821,96.002144 130.131821,93.128738 
	C133.216873,93.128738 135.983734,93.193932 138.746155,93.111061 
	C141.723801,93.021736 143.457489,94.226196 143.847900,97.301987 
	C144.432419,101.907143 144.914047,106.544930 145.901306,111.068016 
	C146.216660,112.512741 147.800568,114.402252 149.149551,114.750717 
	C152.034256,115.495888 152.643616,113.195312 152.823257,110.791504 
	C153.120697,106.811073 153.507141,102.836273 153.919479,98.865685 
	C154.513062,93.149948 155.671539,92.135147 161.505585,92.095764 
	C163.978973,92.079071 166.452576,92.092972 169.064743,92.092972 
	C171.594421,100.235153 164.214706,109.012169 172.368683,117.837051 
	C173.623825,114.234337 175.148621,111.733452 175.228226,109.187386 
	C175.346146,105.415314 174.743073,101.540894 173.886978,97.839561 
	C172.942261,93.755058 173.738968,91.982941 178.322830,92.024124 
	C187.041840,92.102470 187.367249,92.180382 188.563705,100.910545 
	C189.507355,107.795937 190.414413,114.686340 191.406723,122.089241 
	C148.780670,122.089241 106.461540,122.089241 63.686420,122.089241 
	C64.456970,113.581680 64.983429,105.312943 66.146027,97.134628 
	C66.362396,95.612625 68.984894,93.632118 70.762253,93.305077 
	C74.102295,92.690506 77.635902,93.127960 81.161789,93.127960 
	C83.078758,101.222946 76.026749,109.620216 83.393524,117.056320 
	C91.864738,109.822250 83.651833,101.172676 85.995277,93.137009 
	C89.231667,93.137009 92.675186,92.544441 95.739311,93.366325 
	C97.488243,93.835457 99.372276,96.419777 99.869499,98.386864 
	C100.879150,102.381180 100.735184,106.657005 101.596878,110.703903 
	C101.928703,112.262344 103.703812,113.513458 104.821320,114.904587 
	C106.176987,113.585083 108.400520,112.447853 108.723213,110.911392 
	C109.637535,106.557968 109.850014,102.046997 110.190872,97.586761 
	C110.424980,94.523224 111.908173,93.069084 114.974457,93.111732 
	C118.100235,93.155228 121.227097,93.121361 124.065666,93.121361 
	C127.813820,100.897217 119.626884,109.786499 127.519829,116.776077 
	C133.692520,112.217400 130.872635,106.501427 130.201416,100.725525 
z"/>
<path fill="#B74362" opacity="1.000000" stroke="none" 
	d="
M409.563293,138.999847 
	C409.561676,129.177063 409.653473,119.852852 409.510620,110.532242 
	C409.455048,106.905540 410.841553,105.261902 414.484894,105.500298 
	C415.976318,105.597878 417.484375,105.571083 418.977783,105.481827 
	C422.180878,105.290382 425.146820,105.386810 425.196533,109.872368 
	C429.788849,108.199989 433.938354,105.964363 438.341034,105.213669 
	C455.455414,102.295517 471.073975,114.596558 470.950226,131.523941 
	C470.918762,135.831970 471.376740,140.330246 470.329498,144.412674 
	C465.122559,164.711517 440.460999,169.665054 427.844818,160.276932 
	C427.349182,159.908112 426.661316,159.797607 424.982880,159.149948 
	C424.821747,162.482742 424.661041,165.314194 424.557495,168.147720 
	C424.502808,169.644028 424.547516,171.143967 424.547699,172.642273 
	C424.548981,182.786850 424.546051,182.579529 414.535645,182.722321 
	C410.395111,182.781387 409.460022,181.179550 409.504333,177.456223 
	C409.654938,164.805664 409.562561,152.152206 409.563293,138.999847 
M442.120026,118.135941 
	C429.693665,118.183800 423.532227,124.719070 424.266815,137.072327 
	C424.935638,148.319885 439.250061,155.729889 448.822937,149.741394 
	C455.571503,145.519669 457.429504,139.165833 456.307404,131.681641 
	C455.151764,123.973686 450.265228,119.846733 442.120026,118.135941 
z"/>
<path fill="#B84362" opacity="1.000000" stroke="none" 
	d="
M540.951660,154.921326 
	C530.448120,165.587463 517.694885,167.543625 504.307556,160.854828 
	C503.364441,160.383621 501.920807,159.919022 501.187286,160.321457 
	C500.536987,160.678223 500.322845,162.244308 500.310272,163.281342 
	C500.234650,169.507385 500.272797,175.734802 500.272797,181.446304 
	C499.143707,182.114273 498.873962,182.402618 498.580872,182.428711 
	C485.422302,183.599915 485.420807,183.597198 485.423187,170.612946 
	C485.426636,151.473145 485.434357,132.333359 485.435577,113.193558 
	C485.436066,105.499321 485.433136,105.620850 492.991272,105.453598 
	C496.636505,105.372940 500.014374,105.260437 501.159546,110.246712 
	C503.174805,109.271477 504.762787,108.503021 506.350739,107.734535 
	C524.243591,99.075409 543.811462,109.562492 546.827637,129.202499 
	C548.260010,138.529312 546.641663,146.958191 540.951660,154.921326 
M531.543152,128.262634 
	C530.765686,126.988243 530.081116,125.644905 529.195374,124.450798 
	C523.942810,117.369614 513.743774,115.831268 506.502167,120.983109 
	C499.183563,126.189743 497.581146,137.328522 503.037262,145.068604 
	C507.728821,151.724182 518.511780,153.750763 525.317078,149.255936 
	C531.552490,145.137497 534.201965,136.901917 531.543152,128.262634 
z"/>
<path fill="#B84363" opacity="1.000000" stroke="none" 
	d="
M337.894073,155.056915 
	C327.177338,141.181290 330.206573,114.310493 347.325439,107.534981 
	C356.580139,103.872047 365.663788,102.911674 374.420593,108.918068 
	C375.215057,109.462982 376.138550,109.819695 376.985657,110.255341 
	C379.478668,106.172539 387.255707,103.717033 391.433136,105.844635 
	C392.441132,106.358025 393.329041,108.187706 393.338074,109.418938 
	C393.461517,126.217781 393.396759,143.017883 393.442505,159.817520 
	C393.450714,162.825867 392.105225,164.047928 389.174194,163.849548 
	C387.684357,163.748718 386.170990,163.729095 384.686584,163.868240 
	C381.308960,164.184875 378.347900,163.844574 377.400116,159.248032 
	C363.089447,167.659439 349.981537,166.822861 337.894073,155.056915 
M369.506104,150.746414 
	C370.041931,150.355072 370.547577,149.911774 371.118134,149.580215 
	C379.186035,144.891739 380.230652,134.447342 378.155518,128.970474 
	C375.664703,122.396660 372.048706,117.264137 360.963776,117.942612 
	C354.090179,118.363312 349.757263,121.764404 347.172913,127.560806 
	C344.358246,133.873703 345.871155,139.839294 349.803528,145.346405 
	C354.661713,152.150223 361.643494,151.674606 369.506104,150.746414 
z"/>
<path fill="#B84665" opacity="1.000000" stroke="none" 
	d="
M272.114502,118.930969 
	C272.584900,133.109802 273.030914,146.896713 273.208130,160.687073 
	C273.221436,161.721024 271.336517,162.803345 270.278046,163.803955 
	C270.098389,163.973816 269.633728,163.850677 269.300842,163.848694 
	C256.035706,163.769806 258.601135,165.076889 258.323639,153.667374 
	C258.105652,144.706390 257.868774,135.744370 257.483704,126.789528 
	C257.245117,121.241882 253.624237,118.546791 248.628204,117.559494 
	C243.827499,116.610794 238.897079,119.101753 236.706894,123.784859 
	C235.618408,126.112335 234.983963,128.852341 234.923035,131.424164 
	C234.706131,140.579849 234.700958,149.745819 234.875900,158.902908 
	C234.944519,162.494629 233.896332,164.005157 230.076553,163.916016 
	C218.243088,163.639816 220.186920,165.009598 220.139862,154.215561 
	C220.045486,132.563522 220.207901,110.909966 220.026367,89.259026 
	C219.991714,85.125427 221.172592,83.753517 225.371185,83.908356 
	C236.367264,84.313881 234.643707,82.462250 234.799194,93.569733 
	C234.850464,97.233299 234.781555,100.898422 234.817581,104.562340 
	C234.869980,109.892365 235.478271,110.260735 240.068039,107.852051 
	C249.893005,102.695961 261.576477,103.774422 267.722198,110.782478 
	C269.627289,112.954880 270.615295,115.931488 272.114502,118.930969 
z"/>
<path fill="#B84665" opacity="1.000000" stroke="none" 
	d="
M148.842667,182.817169 
	C148.822510,183.040710 148.802338,183.264252 148.523956,184.025238 
	C148.092545,184.966553 147.919373,185.370438 147.746185,185.774307 
	C147.746185,185.774307 147.850769,186.022476 147.565735,185.970001 
	C147.109818,186.201416 146.938965,186.485306 146.768112,186.769211 
	C146.768112,186.769211 146.958008,187.011002 146.612244,186.968491 
	C146.068314,187.214615 145.870163,187.503250 145.672028,187.791901 
	C145.306610,187.897919 144.941208,188.003952 144.091614,187.987640 
	C143.435501,187.855270 143.263565,187.845261 143.091629,187.835236 
	C142.420670,187.471573 141.749725,187.107910 140.564819,186.421432 
	C137.107101,184.484283 134.919037,185.543930 133.140228,188.051697 
	C132.779419,189.134918 132.418594,190.218124 131.892517,191.852997 
	C131.733231,192.573029 131.739182,192.741409 131.745148,192.909775 
	C131.745148,192.909775 131.588776,193.171631 131.312103,193.504791 
	C129.689957,194.240311 128.344467,194.642685 126.998985,195.045044 
	C126.117043,194.844620 125.235100,194.644196 124.135994,193.947510 
	C123.743034,193.133530 123.567238,192.815796 123.391449,192.498047 
	C123.391449,192.498047 123.464951,192.174011 123.383850,191.782028 
	C123.302742,191.390045 122.998123,190.998322 122.998123,190.998322 
	C122.874916,190.437332 122.751701,189.876328 122.368362,188.799362 
	C121.766777,188.102615 121.425316,187.921860 121.083855,187.741089 
	C121.083855,187.741089 120.867523,187.549652 120.503113,187.271011 
	C118.608223,186.884567 117.077728,186.776749 115.547241,186.668930 
	C113.928795,187.478134 112.310349,188.287323 110.184677,188.946472 
	C109.677460,188.796432 109.201019,188.657822 109.201019,188.657822 
	C108.204414,187.317764 107.207809,185.977722 106.381386,184.144745 
	C106.696640,183.098572 106.841705,182.545303 106.986771,181.992050 
	C107.571327,180.926636 108.155891,179.861221 108.784691,178.174957 
	C108.351990,176.852341 107.875053,176.150604 107.398117,175.448868 
	C107.398117,175.448868 107.386215,175.161423 107.264374,174.777115 
	C106.871880,174.165359 106.601227,173.937912 106.330566,173.710480 
	C106.330566,173.710480 106.220955,173.781479 106.117935,173.487671 
	C105.680054,173.106186 105.345184,173.018494 105.010315,172.930817 
	C104.683830,172.799866 104.357346,172.668945 103.552963,172.382538 
	C102.713371,172.238113 102.351692,172.249161 101.990005,172.260223 
	C101.570740,172.174011 101.151482,172.087814 100.354858,171.654877 
	C99.647369,170.539490 99.317230,169.770828 98.987091,169.002151 
	C99.759827,167.306931 100.532555,165.611710 102.018105,163.856903 
	C107.533463,162.993561 108.716583,160.951553 107.402733,155.300690 
	C106.586975,153.954132 105.839890,152.922302 105.092804,151.890488 
	C105.092804,151.890488 105.118202,151.442184 105.289909,151.037704 
	C105.675804,150.109879 105.889984,149.586517 106.104172,149.063171 
	C107.817268,148.332947 109.530365,147.602707 111.647858,147.223618 
	C112.373596,147.684189 112.694931,147.793640 113.016266,147.903076 
	C113.321426,148.070557 113.626579,148.238037 114.449768,148.667862 
	C115.783607,148.713654 116.599411,148.497086 117.415222,148.280518 
	C117.415222,148.280533 117.745689,148.292587 118.247391,148.232300 
	C119.673813,147.081329 120.598526,145.990631 121.523239,144.899948 
	C121.595322,144.477463 121.667412,144.054977 121.883553,143.017853 
	C122.077988,141.949142 122.128365,141.495087 122.178741,141.041016 
	C125.126976,139.387314 127.998772,138.289902 130.217133,142.829163 
	C130.689987,144.196121 131.136261,144.875687 131.582535,145.555267 
	C131.582535,145.555267 131.636337,145.849014 131.833618,146.203644 
	C132.361191,146.651001 132.691498,146.743698 133.021790,146.836426 
	C133.596786,147.048416 134.171799,147.260422 135.227264,147.745514 
	C136.674316,147.835007 137.640930,147.651428 138.607529,147.467850 
	C141.642456,145.088303 144.576630,143.573425 147.036438,149.068283 
	C147.075592,150.743423 146.847809,151.769363 146.620026,152.795303 
	C146.289963,154.286682 145.959885,155.778076 145.814819,157.914642 
	C146.238892,158.838409 146.477982,159.116959 146.717056,159.395523 
	C146.717056,159.395523 146.764542,159.733765 146.905914,160.147446 
	C147.358704,160.731247 147.670120,160.901367 147.981522,161.071472 
	C149.731308,161.651535 151.481094,162.231598 153.528839,163.311005 
	C153.951401,164.542969 154.076004,165.275574 154.200623,166.008194 
	C154.157822,166.765457 154.115005,167.522705 153.821976,168.789566 
	C152.720779,169.893524 151.869827,170.487885 151.018875,171.082245 
	C150.180710,171.253952 149.342545,171.425644 147.935791,171.979248 
	C147.166763,174.679932 146.966293,176.998688 146.765823,179.317444 
	C146.985321,179.794907 147.204819,180.272369 147.700012,181.253265 
	C148.264709,182.110184 148.553680,182.463684 148.842667,182.817169 
M128.194839,176.001862 
	C129.778748,175.156128 131.577225,174.559006 132.903412,173.414612 
	C135.975601,170.763550 136.273193,165.330795 133.774704,162.163483 
	C130.841644,158.445282 126.735268,157.647568 122.792969,159.913589 
	C118.841988,162.184601 117.980408,165.804886 118.940239,169.753906 
	C119.955620,173.931458 123.163414,175.853073 128.194839,176.001862 
z"/>
<path fill="#B74363" opacity="1.000000" stroke="none" 
	d="
M297.932434,163.843048 
	C289.415771,163.817795 289.414398,163.817795 289.414337,155.620712 
	C289.414276,140.821320 289.567291,126.019440 289.325104,111.224022 
	C289.252075,106.761612 290.906708,105.310127 295.105591,105.439995 
	C299.983032,105.590843 305.527924,104.227684 305.385468,111.496330 
	C310.637939,109.223167 315.371918,107.040031 320.213196,105.128494 
	C323.220642,103.941032 325.069672,104.927757 324.908600,108.509674 
	C324.826508,110.335022 324.733704,112.185425 324.933258,113.992760 
	C325.397614,118.199226 323.681274,119.887657 319.411987,120.278984 
	C311.555603,120.999107 305.609497,127.283997 305.230347,135.187302 
	C304.880096,142.488251 305.066498,149.815247 305.029602,157.130844 
	C304.996338,163.727264 305.004181,163.727310 297.932434,163.843048 
z"/>
<path fill="#B84967" opacity="1.000000" stroke="none" 
	d="
M159.822845,164.972229 
	C159.439850,163.430023 159.056854,161.887833 158.255188,159.851318 
	C156.563980,159.269882 155.291428,159.182739 154.018890,159.095596 
	C150.153503,159.904114 150.049606,156.933212 149.193222,154.665909 
	C155.077240,150.205215 155.077255,150.205215 151.471832,143.349442 
	C150.256866,141.039185 152.475769,137.801743 155.295441,138.227478 
	C159.722244,138.895889 161.924835,137.440292 162.169800,132.825760 
	C162.232971,131.635864 163.302948,129.736328 164.210312,129.538544 
	C165.475616,129.262726 167.611969,129.841187 168.344467,130.823181 
	C171.070267,134.477463 173.597412,133.996674 176.732315,131.447632 
	C177.773224,130.601227 179.839737,129.954071 180.851288,130.438812 
	C181.821259,130.903641 182.566803,132.991867 182.474930,134.300980 
	C182.198380,138.242020 183.929688,140.047714 187.656586,140.688965 
	C189.064316,140.931152 191.272278,141.759583 191.456787,142.660492 
	C191.741486,144.050537 190.985596,146.067535 189.984360,147.224045 
	C187.643341,149.928070 187.250473,152.188019 189.694412,155.114395 
	C190.592224,156.189438 190.875046,158.458145 190.374542,159.779327 
	C190.046677,160.644760 187.768082,161.274963 186.435165,161.161926 
	C182.341614,160.814758 180.958084,163.246857 179.960724,166.511139 
	C179.523468,167.942245 178.743408,170.327621 177.992920,170.377365 
	C176.555496,170.472641 175.027969,169.207855 173.264679,167.972107 
	C172.699234,167.245636 172.406952,167.054489 172.114670,166.863358 
	C172.114670,166.863358 172.004272,166.998169 171.855270,166.630707 
	C170.382523,166.445190 169.058792,166.627136 167.735046,166.809082 
	C167.188507,167.281708 166.641968,167.754364 165.699570,168.564529 
	C165.092575,169.198425 164.881424,169.494797 164.670288,169.791168 
	C163.380905,169.548691 162.091522,169.306198 160.393631,168.594452 
	C159.931030,167.074219 159.876938,166.023224 159.822845,164.972229 
M175.033264,144.314545 
	C171.969879,141.895599 168.778732,142.646500 166.635208,145.134415 
	C165.285263,146.701248 164.344650,150.016327 165.113297,151.664246 
	C166.103058,153.786194 168.814117,155.909012 171.111618,156.359528 
	C172.906403,156.711487 176.655151,154.820801 176.957306,153.384277 
	C177.510788,150.752991 176.160370,147.721222 175.033264,144.314545 
z"/>
<path fill="#B84866" opacity="1.000000" stroke="none" 
	d="
M86.087616,167.826630 
	C83.902466,168.127548 81.687912,168.296722 79.542503,168.775650 
	C78.108650,169.095764 76.249733,170.693100 75.511635,170.231323 
	C74.287598,169.465591 73.324539,167.567551 73.118790,166.030411 
	C72.609344,162.224350 70.955551,160.435989 66.933243,160.587799 
	C65.660240,160.635834 63.659893,159.514099 63.219906,158.429657 
	C62.781788,157.349823 63.445553,155.160736 64.391960,154.301636 
	C67.639053,151.354126 67.198296,148.809662 64.559471,145.781998 
	C63.655956,144.745331 62.878967,142.655075 63.341324,141.632950 
	C63.816753,140.581924 65.859024,139.741302 67.244873,139.695648 
	C71.109985,139.568344 73.031303,138.037384 73.144264,134.011917 
	C73.183258,132.622437 73.985283,130.565399 75.023888,130.089035 
	C76.038445,129.623703 78.162140,130.389984 79.164917,131.308105 
	C82.173149,134.062347 84.662254,134.473312 87.562767,131.113480 
	C88.332619,130.221710 90.451180,129.841080 91.667709,130.195724 
	C92.633171,130.477173 93.938736,132.383896 93.763695,133.320480 
	C92.816971,138.385910 95.533363,139.628799 99.749512,140.202026 
	C101.151245,140.392593 103.177086,141.829666 103.424919,143.010254 
	C103.667252,144.164551 102.006264,145.718430 100.724960,147.666534 
	C100.510262,149.829544 100.751343,151.422913 100.992432,153.016296 
	C101.736145,153.785187 102.479858,154.554077 103.481918,155.595093 
	C103.740273,155.867218 103.896240,155.948608 103.882355,156.294464 
	C103.561119,157.735580 103.253761,158.830811 102.614166,159.984558 
	C99.861580,160.699799 97.441231,161.356537 95.020889,162.013275 
	C94.696419,162.119385 94.432663,162.309647 93.823578,162.954376 
	C93.532715,164.332794 93.647896,165.340912 93.763077,166.349030 
	C93.595215,167.339325 93.427353,168.329620 92.752655,169.586914 
	C91.840775,170.057175 91.435730,170.260452 91.030685,170.463745 
	C89.899399,170.126709 88.768120,169.789688 87.300926,168.942520 
	C86.672546,168.230453 86.380081,168.028549 86.087616,167.826630 
M86.269043,144.102402 
	C82.192596,141.578690 79.337379,143.958435 77.624550,147.077423 
	C76.678024,148.800980 76.789978,151.986343 77.792419,153.723541 
	C80.165039,157.835220 84.145523,158.308716 87.487373,155.606171 
	C90.948341,152.807327 90.725967,148.376389 86.269043,144.102402 
z"/>
<path fill="#B74A68" opacity="1.000000" stroke="none" 
	d="
M130.165833,71.682785 
	C134.566772,73.855667 137.185791,76.787697 136.238403,81.675636 
	C135.546738,85.244102 133.528259,87.733170 129.769547,88.316132 
	C126.092239,88.886467 122.215263,88.374634 120.769836,84.753960 
	C119.661003,81.976402 119.382683,78.090942 120.472473,75.402519 
	C121.935402,71.793571 125.801643,70.729446 130.165833,71.682785 
z"/>
<path fill="#B84B68" opacity="1.000000" stroke="none" 
	d="
M89.515030,86.456108 
	C85.381866,89.254059 81.402702,89.505836 77.797935,86.539078 
	C74.612541,83.917480 74.033264,80.016533 75.727440,76.572067 
	C77.337242,73.299156 80.145851,70.819054 84.501915,71.327164 
	C91.478600,72.140953 94.269745,79.868713 89.515030,86.456108 
z"/>
<path fill="#B84B68" opacity="1.000000" stroke="none" 
	d="
M179.975769,79.882614 
	C179.096054,85.246620 175.182022,88.681915 170.908508,88.249886 
	C166.407974,87.794914 162.816299,83.449593 163.107346,78.811775 
	C163.406372,74.046761 166.600281,71.253044 171.744095,71.257187 
	C177.181427,71.261566 179.621841,73.696747 179.975769,79.882614 
z"/>
<path fill="#F5D5DD" opacity="1.000000" stroke="none" 
	d="
M95.433929,162.021210 
	C97.441231,161.356537 99.861580,160.699799 102.833366,160.254562 
	C107.503876,161.366974 106.535812,158.166443 107.065796,155.951874 
	C107.199310,155.837708 107.471405,155.615448 107.471405,155.615448 
	C108.716583,160.951553 107.533463,162.993561 102.358154,163.689545 
	C99.939255,163.064240 97.893112,162.546692 95.433929,162.021210 
z"/>
<path fill="#F5D5DD" opacity="1.000000" stroke="none" 
	d="
M133.543411,188.037613 
	C134.919037,185.543930 137.107101,184.484283 140.280701,186.362991 
	C138.322540,187.092743 136.134567,187.558136 133.543411,188.037613 
z"/>
<path fill="#F5D5DD" opacity="1.000000" stroke="none" 
	d="
M103.896240,155.948608 
	C103.896240,155.948608 103.740273,155.867218 103.747833,155.781311 
	C104.080902,154.667252 104.406418,153.639084 104.912369,152.250702 
	C105.839890,152.922302 106.586975,153.954132 107.402733,155.300690 
	C107.471405,155.615448 107.199310,155.837708 106.689621,155.911484 
	C105.418701,155.973038 104.657471,155.960831 103.896240,155.948608 
z"/>
<path fill="#F2D0D7" opacity="1.000000" stroke="none" 
	d="
M146.845123,178.903656 
	C146.966293,176.998688 147.166763,174.679932 147.695465,172.201172 
	C147.657272,174.190735 147.290848,176.340302 146.845123,178.903656 
z"/>
<path fill="#F5D5DD" opacity="1.000000" stroke="none" 
	d="
M121.230392,144.973785 
	C120.598526,145.990631 119.673813,147.081329 118.386826,148.143448 
	C118.995560,147.092468 119.966560,146.070053 121.230392,144.973785 
z"/>
<path fill="#F2D0D7" opacity="1.000000" stroke="none" 
	d="
M151.201477,171.312988 
	C151.869827,170.487885 152.720779,169.893524 153.860901,169.167786 
	C153.228073,169.872192 152.306076,170.707962 151.201477,171.312988 
z"/>
<path fill="#F5D5DD" opacity="1.000000" stroke="none" 
	d="
M127.255264,195.316376 
	C128.344467,194.642685 129.689957,194.240311 131.338409,193.654999 
	C131.806229,197.186295 129.383530,195.849503 127.255264,195.316376 
z"/>
<path fill="#F2D0D7" opacity="1.000000" stroke="none" 
	d="
M159.535828,165.141724 
	C159.876938,166.023224 159.931030,167.074219 160.066650,168.514618 
	C156.993683,168.421005 157.960968,166.906235 159.535828,165.141724 
z"/>
<path fill="#F2D0D7" opacity="1.000000" stroke="none" 
	d="
M154.267517,159.350403 
	C155.291428,159.182739 156.563980,159.269882 157.958023,159.653122 
	C156.891724,159.834549 155.703934,159.719879 154.267517,159.350403 
z"/>
<path fill="#F2D0D7" opacity="1.000000" stroke="none" 
	d="
M146.963760,152.752228 
	C146.847809,151.769363 147.075592,150.743423 147.286682,149.321487 
	C150.066391,150.159134 148.943161,151.431610 146.963760,152.752228 
z"/>
<path fill="#F5D5DD" opacity="1.000000" stroke="none" 
	d="
M115.966850,186.795914 
	C117.077728,186.776749 118.608223,186.884567 120.358734,187.274780 
	C119.181320,187.345764 117.783890,187.134323 115.966850,186.795914 
z"/>
<path fill="#F5D5DD" opacity="1.000000" stroke="none" 
	d="
M98.726349,169.199814 
	C99.317230,169.770828 99.647369,170.539490 100.034103,171.626282 
	C99.549004,171.095413 99.007309,170.246445 98.726349,169.199814 
z"/>
<path fill="#F5D5DD" opacity="1.000000" stroke="none" 
	d="
M101.012924,152.573776 
	C100.751343,151.422913 100.510262,149.829544 100.532410,147.962250 
	C100.874901,149.169312 100.954155,150.650284 101.012924,152.573776 
z"/>
<path fill="#F5D5DD" opacity="1.000000" stroke="none" 
	d="
M138.066345,147.346283 
	C137.640930,147.651428 136.674316,147.835007 135.530243,147.796234 
	C136.076889,147.457474 136.801010,147.341095 138.066345,147.346283 
z"/>
<path fill="#F5D5DD" opacity="1.000000" stroke="none" 
	d="
M131.690811,145.229218 
	C131.136261,144.875687 130.689987,144.196121 130.345642,143.214081 
	C130.898087,143.575455 131.348587,144.239304 131.690811,145.229218 
z"/>
<path fill="#F5D5DD" opacity="1.000000" stroke="none" 
	d="
M106.691643,182.014389 
	C106.841705,182.545303 106.696640,183.098572 106.321472,183.833679 
	C106.193092,183.355927 106.294800,182.696320 106.691643,182.014389 
z"/>
<path fill="#F5D5DD" opacity="1.000000" stroke="none" 
	d="
M107.311775,175.861877 
	C107.875053,176.150604 108.351990,176.852341 108.746880,177.801392 
	C108.185036,177.457428 107.705231,176.866165 107.311775,175.861877 
z"/>
<path fill="#F5D5DD" opacity="1.000000" stroke="none" 
	d="
M105.801895,149.054871 
	C105.889984,149.586517 105.675804,150.109879 105.241943,150.818375 
	C105.181396,150.351196 105.340515,149.698883 105.801895,149.054871 
z"/>
<path fill="#F2D0D7" opacity="1.000000" stroke="none" 
	d="
M168.170181,166.876266 
	C169.058792,166.627136 170.382523,166.445190 171.909149,166.563797 
	C170.943130,166.890717 169.774231,166.917084 168.170181,166.876266 
z"/>
<path fill="#F2D0D7" opacity="1.000000" stroke="none" 
	d="
M154.426666,165.797791 
	C154.076004,165.275574 153.951401,164.542969 153.847549,163.436478 
	C154.129776,163.904205 154.391251,164.745789 154.426666,165.797791 
z"/>
<path fill="#F5D5DD" opacity="1.000000" stroke="none" 
	d="
M93.853363,165.939667 
	C93.647896,165.340912 93.532715,164.332794 93.718765,163.178040 
	C93.994553,163.864365 93.969101,164.697342 93.853363,165.939667 
z"/>
<path fill="#F5D5DD" opacity="1.000000" stroke="none" 
	d="
M121.926071,141.127899 
	C122.128365,141.495087 122.077988,141.949142 121.843155,142.696350 
	C121.663597,142.397903 121.668495,141.806335 121.926071,141.127899 
z"/>
<path fill="#F2D0D7" opacity="1.000000" stroke="none" 
	d="
M147.994873,185.774811 
	C147.919373,185.370438 148.092545,184.966553 148.534058,184.361725 
	C148.616119,184.698959 148.429840,185.237137 147.994873,185.774811 
z"/>
<path fill="#F5D5DD" opacity="1.000000" stroke="none" 
	d="
M116.919189,148.207581 
	C116.599411,148.497086 115.783607,148.713654 114.710472,148.698273 
	C115.109810,148.355759 115.766487,148.245193 116.919189,148.207581 
z"/>
<path fill="#F5D5DD" opacity="1.000000" stroke="none" 
	d="
M91.235687,170.618958 
	C91.435730,170.260452 91.840775,170.057175 92.591675,169.853348 
	C92.438576,170.159927 91.939636,170.467056 91.235687,170.618958 
z"/>
<path fill="#F2D0D7" opacity="1.000000" stroke="none" 
	d="
M148.915680,182.589401 
	C148.553680,182.463684 148.264709,182.110184 147.909607,181.416214 
	C148.225235,181.504364 148.606964,181.932999 148.915680,182.589401 
z"/>
<path fill="#F5D5DD" opacity="1.000000" stroke="none" 
	d="
M121.169373,188.027145 
	C121.425316,187.921860 121.766777,188.102615 122.186676,188.574036 
	C121.928368,188.680847 121.591621,188.497025 121.169373,188.027145 
z"/>
<path fill="#F5D5DD" opacity="1.000000" stroke="none" 
	d="
M123.309052,192.780884 
	C123.567238,192.815796 123.743034,193.133530 123.876144,193.726639 
	C123.631187,193.689240 123.428932,193.376480 123.309052,192.780884 
z"/>
<path fill="#F2D0D7" opacity="1.000000" stroke="none" 
	d="
M145.961853,187.762512 
	C145.870163,187.503250 146.068314,187.214615 146.521912,186.845917 
	C146.602127,187.088303 146.426910,187.410721 145.961853,187.762512 
z"/>
<path fill="#F2D0D7" opacity="1.000000" stroke="none" 
	d="
M143.111160,188.028824 
	C143.263565,187.845261 143.435501,187.855270 143.808868,188.027069 
	C143.717102,188.200027 143.423889,188.211227 143.111160,188.028824 
z"/>
<path fill="#F5D5DD" opacity="1.000000" stroke="none" 
	d="
M109.173668,188.863007 
	C109.201019,188.657822 109.677460,188.796432 109.838089,188.985565 
	C109.714584,189.139191 109.430450,189.103683 109.173668,188.863007 
z"/>
<path fill="#F5D5DD" opacity="1.000000" stroke="none" 
	d="
M105.130554,173.179367 
	C105.345184,173.018494 105.680054,173.106186 106.143005,173.427383 
	C105.930984,173.583237 105.590889,173.505569 105.130554,173.179367 
z"/>
<path fill="#F5D5DD" opacity="1.000000" stroke="none" 
	d="
M122.820450,191.102020 
	C122.998123,190.998322 123.302742,191.390045 123.301483,191.637726 
	C123.081085,191.658844 122.861931,191.432281 122.820450,191.102020 
z"/>
<path fill="#F5D5DD" opacity="1.000000" stroke="none" 
	d="
M131.950546,192.890533 
	C131.739182,192.741409 131.733231,192.573029 131.878693,192.202301 
	C132.173279,192.201385 132.329269,192.396027 132.443756,192.612610 
	C132.458420,192.640366 132.257172,192.782257 131.950546,192.890533 
z"/>
<path fill="#F2D0D7" opacity="1.000000" stroke="none" 
	d="
M147.043961,186.739716 
	C146.938965,186.485306 147.109818,186.201416 147.525040,185.842316 
	C147.619537,186.081497 147.469681,186.395874 147.043961,186.739716 
z"/>
<path fill="#F5D5DD" opacity="1.000000" stroke="none" 
	d="
M132.896469,146.621185 
	C132.691498,146.743698 132.361191,146.651001 131.949265,146.298096 
	C132.222382,146.029114 132.523560,146.151794 132.896469,146.621185 
z"/>
<path fill="#F5D5DD" opacity="1.000000" stroke="none" 
	d="
M106.325829,173.996674 
	C106.601227,173.937912 106.871880,174.165359 107.170624,174.668015 
	C106.906166,174.723099 106.613625,174.502991 106.325829,173.996674 
z"/>
<path fill="#F5D5DD" opacity="1.000000" stroke="none" 
	d="
M112.894150,147.672241 
	C112.694931,147.793640 112.373596,147.684189 111.936081,147.335129 
	C112.137276,147.210815 112.454651,147.326111 112.894150,147.672241 
z"/>
<path fill="#F5D5DD" opacity="1.000000" stroke="none" 
	d="
M102.193558,172.459167 
	C102.351692,172.249161 102.713371,172.238113 103.287415,172.411652 
	C103.132217,172.616882 102.764664,172.637497 102.193558,172.459167 
z"/>
<path fill="#F2D0D7" opacity="1.000000" stroke="none" 
	d="
M164.971252,169.753006 
	C164.881424,169.494797 165.092575,169.198425 165.563385,168.801666 
	C165.639450,169.039139 165.455826,169.376984 164.971252,169.753006 
z"/>
<path fill="#F5D5DD" opacity="1.000000" stroke="none" 
	d="
M86.142075,168.094238 
	C86.380081,168.028549 86.672546,168.230453 87.011284,168.704086 
	C86.770546,168.771149 86.483536,168.566513 86.142075,168.094238 
z"/>
<path fill="#F2D0D7" opacity="1.000000" stroke="none" 
	d="
M172.165359,167.128387 
	C172.406952,167.054489 172.699234,167.245636 173.038315,167.705536 
	C172.795425,167.780655 172.505737,167.587021 172.165359,167.128387 
z"/>
<path fill="#F2D0D7" opacity="1.000000" stroke="none" 
	d="
M147.899033,160.823502 
	C147.670120,160.901367 147.358704,160.731247 147.009003,160.283600 
	C147.252655,160.195877 147.534607,160.385696 147.899033,160.823502 
z"/>
<path fill="#F2D0D7" opacity="1.000000" stroke="none" 
	d="
M146.744385,159.103867 
	C146.477982,159.116959 146.238892,158.838409 145.999542,158.278397 
	C146.256744,158.268707 146.514236,158.540466 146.744385,159.103867 
z"/>
<path fill="#FDF8F9" opacity="1.000000" stroke="none" 
	d="
M442.540009,118.146027 
	C450.265228,119.846733 455.151764,123.973686 456.307404,131.681641 
	C457.429504,139.165833 455.571503,145.519669 448.822937,149.741394 
	C439.250061,155.729889 424.935638,148.319885 424.266815,137.072327 
	C423.532227,124.719070 429.693665,118.183800 442.540009,118.146027 
z"/>
<path fill="#FDF8F9" opacity="1.000000" stroke="none" 
	d="
M531.690186,128.625732 
	C534.201965,136.901917 531.552490,145.137497 525.317078,149.255936 
	C518.511780,153.750763 507.728821,151.724182 503.037262,145.068604 
	C497.581146,137.328522 499.183563,126.189743 506.502167,120.983109 
	C513.743774,115.831268 523.942810,117.369614 529.195374,124.450798 
	C530.081116,125.644905 530.765686,126.988243 531.690186,128.625732 
z"/>
<path fill="#FDF7F9" opacity="1.000000" stroke="none" 
	d="
M369.106628,150.884705 
	C361.643494,151.674606 354.661713,152.150223 349.803528,145.346405 
	C345.871155,139.839294 344.358246,133.873703 347.172913,127.560806 
	C349.757263,121.764404 354.090179,118.363312 360.963776,117.942612 
	C372.048706,117.264137 375.664703,122.396660 378.155518,128.970474 
	C380.230652,134.447342 379.186035,144.891739 371.118134,149.580215 
	C370.547577,149.911774 370.041931,150.355072 369.106628,150.884705 
z"/>
<path fill="#FCF2F4" opacity="1.000000" stroke="none" 
	d="
M127.795471,176.037659 
	C123.163414,175.853073 119.955620,173.931458 118.940239,169.753906 
	C117.980408,165.804886 118.841988,162.184601 122.792969,159.913589 
	C126.735268,157.647568 130.841644,158.445282 133.774704,162.163483 
	C136.273193,165.330795 135.975601,170.763550 132.903412,173.414612 
	C131.577225,174.559006 129.778748,175.156128 127.795471,176.037659 
z"/>
<path fill="#FAECEF" opacity="1.000000" stroke="none" 
	d="
M175.318542,144.585495 
	C176.160370,147.721222 177.510788,150.752991 176.957306,153.384277 
	C176.655151,154.820801 172.906403,156.711487 171.111618,156.359528 
	C168.814117,155.909012 166.103058,153.786194 165.113297,151.664246 
	C164.344650,150.016327 165.285263,146.701248 166.635208,145.134415 
	C168.778732,142.646500 171.969879,141.895599 175.318542,144.585495 
z"/>
<path fill="#FAECEF" opacity="1.000000" stroke="none" 
	d="
M86.599403,144.298950 
	C90.725967,148.376389 90.948341,152.807327 87.487373,155.606171 
	C84.145523,158.308716 80.165039,157.835220 77.792419,153.723541 
	C76.789978,151.986343 76.678024,148.800980 77.624550,147.077423 
	C79.337379,143.958435 82.192596,141.578690 86.599403,144.298950 
z"/>
<path fill="#FFFEFE" opacity="1.000000" stroke="none" 
	d="
M103.882355,156.294464 
	C104.657471,155.960831 105.418701,155.973038 106.556107,156.025650 
	C106.535812,158.166443 107.503876,161.366974 103.165611,160.196060 
	C103.253761,158.830811 103.561119,157.735580 103.882355,156.294464 
z"/>
</svg>